<?xml version="1.0" encoding="UTF-8"?>
<svg id="uuid-b55e1a07-f5ea-4b8d-b590-5dc9446064aa" data-name="Layer 2" xmlns="http://www.w3.org/2000/svg" width="185.6" height="185.6" viewBox="0 0 185.6 185.6">
  <defs>
    <style>
      .uuid-b225027a-9619-44ad-9cf1-a34d4c6bd8fc {
        fill: #b28378;
      }
    </style>
  </defs>
  <g id="uuid-345c2fc5-759d-4a78-8adf-7e936312859f" data-name="Capa 1">
    <g>
      <path class="uuid-b225027a-9619-44ad-9cf1-a34d4c6bd8fc" d="M59,115.7v1.2h-22.2v-1.2c11,0,11-17.3,11-17.3h1.2s-.1,17.3,10,17.3m-1-50.3l18.3,38.5-5.5,13.7h-1.2l-21.8-45.9c-2.8-4.9-6.4-4.9-8.3-5.1v-1.2h18.5Zm49.2,50.3v1.2h-22.1v-1.2c3.1,0,5.3-2.6,5.3-7.6v-42.7h16.2v1.2c-3.2,0-5.6,2-5.6,6.4v35c0,5,3.2,7.6,6.3,7.6"/>
      <path class="uuid-b225027a-9619-44ad-9cf1-a34d4c6bd8fc" d="M132.2,101.3l-9.3-22.8,5-13.1h1.2c18,43.1,18.6,45,18.6,45,2.5,5.9,4.3,5.2,6.2,5.3v1.2h-21v-1.2c5.7,0,1.9-7.8,1.9-7.8l-2.2-5.4"/>
      <path class="uuid-b225027a-9619-44ad-9cf1-a34d4c6bd8fc" d="M119.8,11.6c0,0,.1-.1,.2-.2,0,0,.1-.1,.2-.2l6.3-5.7c0,0,.1,0,.2,0,0,0,0,0,.2,0l.5,.2-3.3,10.1-.6-.2,2.8-8.6c0-.1,0-.3,.1-.4l-6.3,5.8c-.1,.1-.2,.1-.3,0h-.1c-.1,0-.2-.2-.2-.3l-1.8-8.4c0,.1,0,.3-.1,.4l-2.8,8.6-.6-.2,3.3-10.1,.5,.2c0,0,.1,0,.2,0,0,0,0,0,0,.2l1.8,8.3c0,.2,0,.3,0,.5Z"/>
      <path class="uuid-b225027a-9619-44ad-9cf1-a34d4c6bd8fc" d="M140.8,25l-.5-.3c0,0,0,0-.1-.1s0-.1,0-.2l.6-3.3-4.4-2.8-2.7,2s-.1,0-.2,0c0,0-.1,0-.2,0l-.5-.3,9.3-6.7,.6,.4-1.9,11.3Zm-4-7l4,2.5,1-5.7c0,0,0-.2,0-.3s0-.2,0-.3c0,0-.2,.2-.3,.2s-.2,.1-.2,.2l-4.7,3.4Z"/>
      <path class="uuid-b225027a-9619-44ad-9cf1-a34d4c6bd8fc" d="M160.3,27.8l-.4,.5-2.7-2.6-6.9,7.2-.6-.5,6.9-7.2-2.7-2.6,.4-.5,6,5.7Z"/>
      <path class="uuid-b225027a-9619-44ad-9cf1-a34d4c6bd8fc" d="M160,44.2l-.5-.6,8.5-6.3,.5,.6-8.5,6.3Z"/>
      <path class="uuid-b225027a-9619-44ad-9cf1-a34d4c6bd8fc" d="M169.5,60.9l-.3-.5c0,0,0-.1,0-.2s0-.1,0-.2l2.2-2.5-2.3-4.7-3.3,.2c0,0-.1,0-.2,0,0,0-.1,0-.1-.1l-.3-.5,11.4-.7,.3,.7-7.7,8.5Zm.4-8.1l2.1,4.3,3.9-4.3c0,0,.1-.1,.2-.2,0,0,.2-.2,.3-.2-.1,0-.2,0-.4,0-.1,0-.2,0-.3,0l-5.8,.4Z"/>
      <path class="uuid-b225027a-9619-44ad-9cf1-a34d4c6bd8fc" d="M182.9,73.4c0,0-.1,0-.2-.2,0,0,0-.2,0-.3,0-.1,.1-.3,.2-.5,0-.2,.1-.4,.1-.7,0-.3,0-.6,0-1,0-.4-.2-.7-.4-1-.2-.3-.4-.5-.6-.6s-.5-.2-.7-.3c-.3,0-.5,0-.8,0-.4,0-.6,.2-.8,.4-.2,.2-.3,.4-.4,.7-.1,.3-.2,.6-.2,.9,0,.3,0,.7,0,1,0,.4,0,.7-.1,1,0,.3-.1,.7-.3,.9-.1,.3-.3,.5-.6,.8s-.6,.4-1,.5c-.4,.1-.9,.1-1.3,0-.4,0-.8-.2-1.2-.4-.4-.2-.7-.5-.9-.9-.3-.4-.5-.8-.6-1.3-.2-.7-.2-1.3,0-1.8,.1-.5,.3-1.1,.7-1.5h.4c0,.2,.1,.2,.2,.3,0,0,0,.1,0,.2,0,0,0,.2-.2,.3,0,.1-.1,.3-.2,.4,0,.2-.1,.3-.2,.5,0,.2,0,.4,0,.7,0,.2,0,.5,.1,.8,0,.4,.2,.8,.5,1s.4,.5,.7,.7,.6,.3,.9,.3c.3,0,.7,0,1,0,.4,0,.6-.2,.8-.4,.2-.2,.3-.5,.4-.7,0-.3,.2-.6,.2-.9,0-.3,0-.7,0-1,0-.4,0-.7,.1-1,0-.3,.1-.7,.3-.9,.1-.3,.3-.5,.6-.8,.3-.2,.6-.4,1-.5,.3,0,.7,0,1,0,.4,0,.7,.2,1,.4,.3,.2,.6,.5,.8,.8s.4,.7,.5,1.2c.1,.5,.2,1,0,1.5,0,.5-.2,.9-.5,1.4h-.4Z"/>
      <path class="uuid-b225027a-9619-44ad-9cf1-a34d4c6bd8fc" d="M174.5,107v-.6c0,0,.1-.1,.1-.2,0,0,0,0,.2,0l3.2-.9,.6-5.2-2.9-1.6c0,0,0,0-.1-.1s0-.1,0-.2v-.6l10.1,5.6v.8l-11.1,3.1Zm4.7-6.6l-.6,4.7,5.6-1.5c0,0,.2,0,.3,0,.1,0,.2,0,.4,0-.1,0-.2,0-.3-.1-.1,0-.2,0-.3-.1l-5.1-2.8Z"/>
      <path class="uuid-b225027a-9619-44ad-9cf1-a34d4c6bd8fc" d="M172.7,122.7c0,0,.1,.1,.2,.2,0,0,.1,.1,.2,.2l5.4,6.5c0,0,0,.1,0,.2,0,0,0,0,0,.2l-.2,.5-9.9-3.7,.2-.6,8.5,3.2c.1,0,.2,.1,.4,.2l-5.5-6.5c0-.1-.1-.2,0-.3h0c0-.2,.1-.3,.3-.3l8.5-1.4c-.1,0-.3,0-.4-.1l-8.5-3.2,.2-.6,9.9,3.7-.2,.5c0,0,0,.1,0,.2,0,0,0,0-.2,0l-8.4,1.4c-.2,0-.3,0-.5,0Z"/>
      <path class="uuid-b225027a-9619-44ad-9cf1-a34d4c6bd8fc" d="M158.4,143.1l.3-.5c0,0,0,0,.1-.1,0,0,.1,0,.2,0l3.2,.7,3-4.3-1.8-2.8s0-.1,0-.2c0,0,0-.1,0-.2l.3-.5,6.3,9.6-.4,.6-11.2-2.4Zm7.2-3.7l-2.7,3.9,5.6,1.3c0,0,.2,0,.3,0,.1,0,.2,0,.3,.1,0,0-.2-.2-.2-.3,0,0-.1-.2-.2-.3l-3.2-4.8Z"/>
      <path class="uuid-b225027a-9619-44ad-9cf1-a34d4c6bd8fc" d="M148.6,160.6c-.6-.6-1-1.2-1.2-1.9-.3-.6-.4-1.3-.4-1.9,0-.6,.2-1.3,.5-1.9,.3-.6,.7-1.2,1.3-1.7l2.9-2.6,7.1,7.8-2.9,2.6c-.6,.5-1.1,.9-1.8,1.1-.6,.2-1.3,.3-1.9,.3-.6,0-1.3-.2-1.9-.5-.6-.3-1.2-.8-1.8-1.4Zm.6-.5c.5,.5,1,1,1.6,1.3,.5,.3,1.1,.5,1.6,.5,.5,0,1.1,0,1.6-.2,.5-.2,1-.5,1.5-.9l2.3-2.1-6.3-6.9-2.3,2.1c-.5,.4-.8,.9-1.1,1.4-.2,.5-.4,1-.4,1.6s.1,1.1,.3,1.7c.2,.6,.6,1.1,1.1,1.7Z"/>
      <path class="uuid-b225027a-9619-44ad-9cf1-a34d4c6bd8fc" d="M130.4,172.2c-.4-.7-.6-1.4-.7-2.1-.1-.7,0-1.4,0-2,.2-.6,.5-1.2,.9-1.7s1-1,1.6-1.3c.7-.4,1.3-.6,2-.6,.7,0,1.3,0,1.9,.2,.6,.2,1.2,.5,1.7,1s1,1.1,1.4,1.8c.4,.7,.6,1.4,.7,2.1,.1,.7,0,1.4,0,2-.2,.6-.5,1.2-.9,1.7-.4,.5-1,1-1.6,1.3-.7,.4-1.3,.6-2,.6s-1.3,0-1.9-.2c-.6-.2-1.2-.5-1.7-1s-1-1.1-1.4-1.8Zm.7-.4c.4,.7,.8,1.2,1.2,1.6s1,.7,1.5,.9c.5,.2,1.1,.2,1.6,.2,.6,0,1.1-.2,1.7-.5,.6-.3,1-.7,1.4-1.1s.6-.9,.7-1.5c.1-.5,.2-1.1,0-1.7,0-.6-.3-1.3-.7-1.9-.4-.7-.8-1.2-1.2-1.6-.5-.4-1-.7-1.5-.9-.5-.2-1.1-.2-1.6-.2s-1.1,.2-1.7,.5c-.6,.3-1,.7-1.4,1.1-.4,.4-.6,.9-.7,1.5-.1,.5-.1,1.1,0,1.7s.3,1.2,.7,1.9Z"/>
      <path class="uuid-b225027a-9619-44ad-9cf1-a34d4c6bd8fc" d="M84.9,176.5c0,0,0,0-.1,0l-.3-.3c.2-.2,.5-.4,.7-.6s.6-.3,.9-.4c.3-.1,.7-.2,1-.3,.4,0,.8,0,1.2,0,.7,0,1.4,.2,2,.5,.6,.3,1.1,.7,1.5,1.2,.4,.5,.7,1.1,.9,1.8,.2,.7,.3,1.4,.3,2.2,0,.8-.2,1.5-.5,2.2-.3,.7-.7,1.2-1.1,1.7-.5,.5-1,.8-1.7,1-.6,.2-1.4,.3-2.1,.3-.4,0-.7,0-1.1-.1-.3,0-.6-.2-.9-.3-.3-.1-.5-.3-.8-.4-.2-.2-.5-.4-.7-.6l.2-.3c0,0,.1,0,.2,0,0,0,.1,0,.2,0,0,0,.2,.1,.3,.2,.1,0,.2,.2,.4,.3,.1,0,.3,.2,.5,.3,.2,0,.4,.2,.7,.2,.3,0,.6,.1,.9,.1,.6,0,1.2,0,1.8-.2,.5-.2,1-.5,1.4-.9,.4-.4,.7-.9,1-1.5,.2-.6,.4-1.2,.4-2,0-.7,0-1.4-.2-2s-.5-1.1-.8-1.5c-.4-.4-.8-.8-1.3-1-.5-.2-1.1-.4-1.7-.4-.4,0-.7,0-1,0-.3,0-.6,0-.8,.2-.3,0-.5,.2-.7,.3-.2,.1-.4,.3-.7,.5,0,0,0,0,0,0,0,0,0,0,0,0Z"/>
      <path class="uuid-b225027a-9619-44ad-9cf1-a34d4c6bd8fc" d="M73.1,172.6l.8,.2-2.5,10.3-.8-.2,2.5-10.3Z"/>
      <path class="uuid-b225027a-9619-44ad-9cf1-a34d4c6bd8fc" d="M59.5,173.2l1.9-4.4,.7,.3-4.3,9.7-2.5-1.1c-1.1-.5-1.9-1.1-2.2-1.8-.4-.7-.4-1.4,0-2.3,.2-.4,.4-.7,.6-.9,.3-.2,.6-.4,.9-.6,.3-.1,.7-.2,1.1-.2,.4,0,.8,0,1.3,.2,0-.1-.1-.3-.2-.4l-1.5-5.7,.6,.3c0,0,.1,0,.2,.1s0,.1,0,.2l1.4,5.3c0,.1,0,.2,.2,.3,0,0,.2,.2,.4,.2l1.3,.6Zm-.2,.5l-1.7-.7c-.4-.2-.8-.3-1.2-.4-.4,0-.7,0-1.1,0-.3,0-.6,.2-.8,.5-.2,.2-.4,.5-.6,.8-.3,.7-.3,1.3,0,1.8,.3,.5,.9,1,1.8,1.4l1.8,.8,1.9-4.2Z"/>
      <path class="uuid-b225027a-9619-44ad-9cf1-a34d4c6bd8fc" d="M43.6,159.1c-.4-.3-.8-.5-1.3-.6s-.8-.1-1.3,0c-.4,0-.8,.3-1.2,.5-.4,.3-.7,.6-1,1l-3.9,5.3-.6-.5,3.9-5.3c.3-.5,.7-.9,1.2-1.2,.5-.3,.9-.5,1.4-.6,.5,0,1,0,1.5,0,.5,.1,1,.4,1.5,.7s.9,.8,1.2,1.3c.3,.5,.4,1,.5,1.5,0,.5,0,1-.2,1.5-.2,.5-.4,1-.8,1.5l-3.9,5.3-.6-.5,3.9-5.3c.3-.4,.5-.8,.6-1.2,.1-.4,.2-.9,.2-1.3,0-.4-.2-.8-.4-1.2-.2-.4-.5-.7-.9-1Z"/>
      <path class="uuid-b225027a-9619-44ad-9cf1-a34d4c6bd8fc" d="M29.1,145.4c-.2-.3-.5-.5-.7-.7-.2-.2-.4-.4-.7-.5-.2-.1-.4-.3-.7-.4-.2-.1-.5-.2-.7-.3l-2.2,1.8,1.3,1.6s0,0,0,.1c0,0,0,0,0,.1l-.3,.3-1.9-2.2,2.9-2.4c.3,0,.6,.2,.9,.3,.3,.1,.6,.3,.9,.5,.3,.2,.6,.4,.8,.7,.3,.3,.6,.5,.9,.9,.5,.6,.8,1.2,1.1,1.9,.2,.7,.3,1.3,.2,2,0,.7-.3,1.3-.6,1.9-.4,.6-.8,1.2-1.5,1.7s-1.3,.9-1.9,1.1c-.7,.2-1.3,.3-2,.3-.7,0-1.3-.2-1.9-.6-.6-.3-1.2-.8-1.7-1.4-.3-.3-.5-.6-.7-.9-.2-.3-.3-.6-.4-.9-.1-.3-.2-.6-.2-.9,0-.3,0-.6,0-.9h.4c0,0,.2,0,.2,0,0,0,0,0,0,.1,0,0,0,.2,0,.4,0,.2,0,.4,.1,.7,0,.3,.2,.6,.3,.9s.4,.7,.7,1.1c.4,.5,.9,.9,1.5,1.2,.5,.3,1.1,.4,1.6,.5,.6,0,1.1,0,1.7-.3s1.2-.6,1.7-1c.6-.5,1-1,1.3-1.5,.3-.5,.5-1.1,.6-1.7,0-.6,0-1.1-.2-1.7-.2-.6-.5-1.1-.9-1.6Z"/>
      <path class="uuid-b225027a-9619-44ad-9cf1-a34d4c6bd8fc" d="M20.5,131.7l.4,.7-9.3,5.1-.4-.7,9.3-5.1Z"/>
      <path class="uuid-b225027a-9619-44ad-9cf1-a34d4c6bd8fc" d="M13.3,114l.2,.6c0,0,0,.1,0,.2,0,0,0,.1-.1,.1l-2.5,2.2,1.6,4.9,3.3,.2c0,0,.1,0,.2,0,0,0,0,0,.1,.2l.2,.6-11.4-.8-.2-.7,8.7-7.5Zm-1.4,8l-1.5-4.5-4.4,3.7c0,0-.2,.1-.2,.2s-.2,.1-.3,.2c.1,0,.2,0,.4,0s.2,0,.3,0l5.8,.4Z"/>
      <path class="uuid-b225027a-9619-44ad-9cf1-a34d4c6bd8fc" d="M6.4,90.6l4.3,.2v.8l-10.6-.4v-2.7c.2-1.2,.5-2.2,1-2.8,.6-.6,1.4-.9,2.4-.9,.5,0,.9,.1,1.3,.3s.7,.5,1,.8c.3,.3,.5,.7,.6,1.2,.1,.5,.2,1,.2,1.6v2Zm-.7,0v-2c0-.5,0-.9,0-1.3-.1-.4-.3-.7-.5-1-.2-.3-.5-.5-.8-.6-.3-.2-.6-.2-1-.2-.8,0-1.5,.2-1.9,.7s-.7,1.2-.8,2.2v2l5,.2Z"/>
      <path class="uuid-b225027a-9619-44ad-9cf1-a34d4c6bd8fc" d="M12,74l1.2-4.9,.6,.2-1.4,5.6-10.3-2.5,.2-.7,9.7,2.4Z"/>
      <path class="uuid-b225027a-9619-44ad-9cf1-a34d4c6bd8fc" d="M20.8,52.5l-.3,.5c0,0,0,.1-.1,.1,0,0-.1,0-.2,0l-3.3-.2-2.3,4.7,2.2,2.5s0,0,0,.2,0,.1,0,.2l-.3,.5-7.7-8.5,.3-.7,11.4,.7Zm-6.6,4.7l2.1-4.3-5.8-.4c0,0-.2,0-.3,0s-.2,0-.4,0c0,0,.2,.2,.3,.2,0,0,.2,.2,.2,.2l3.9,4.3Z"/>
      <path class="uuid-b225027a-9619-44ad-9cf1-a34d4c6bd8fc" d="M22,34.2c0,0,0,.2,0,.2,0,0-.1,0-.3,.1s-.3,0-.5,.1c-.2,0-.4,.2-.6,.3s-.5,.4-.7,.7c-.2,.3-.4,.6-.5,.9,0,.3-.1,.6,0,.9,0,.3,.1,.5,.2,.8,.1,.2,.3,.4,.5,.6,.3,.2,.6,.3,.8,.4,.3,0,.6,0,.8-.1,.3,0,.6-.2,.9-.4,.3-.2,.6-.4,.9-.6s.6-.4,.9-.6c.3-.2,.6-.3,.9-.4,.3,0,.6,0,1,0,.3,0,.7,.2,1,.5,.4,.3,.6,.6,.9,.9s.4,.7,.4,1.2c0,.4,0,.8-.1,1.3-.1,.4-.4,.9-.7,1.3-.4,.6-.9,1-1.4,1.2-.5,.2-1,.4-1.6,.4v-.4c-.2,0-.1-.2,0-.2,0,0,0,0,.2,0,0,0,.2,0,.3,0s.3,0,.4-.1,.3-.1,.5-.2c.2,0,.4-.2,.6-.4s.4-.4,.6-.6c.3-.3,.4-.7,.5-1,.1-.3,.1-.7,0-1,0-.3-.1-.6-.3-.9s-.4-.5-.7-.7c-.3-.2-.6-.4-.9-.4-.3,0-.6,0-.9,.1-.3,0-.6,.2-.8,.4s-.6,.4-.9,.6c-.3,.2-.6,.4-.9,.6-.3,.2-.6,.3-.9,.4-.3,0-.6,0-1,0-.3,0-.7-.2-1-.5-.3-.2-.5-.5-.7-.8-.2-.3-.3-.6-.3-1,0-.4,0-.7,.1-1.1s.3-.8,.6-1.2c.3-.4,.7-.8,1.1-1,.4-.2,.9-.4,1.4-.5l.2,.4Z"/>
      <path class="uuid-b225027a-9619-44ad-9cf1-a34d4c6bd8fc" d="M35.6,19.2l.4,.5-2.8,2.4,6.5,7.5-.6,.5-6.5-7.5-2.8,2.4-.4-.5,6.2-5.4Z"/>
      <path class="uuid-b225027a-9619-44ad-9cf1-a34d4c6bd8fc" d="M51.9,21l-.7,.4-5.4-9.1,.7-.4,5.4,9.1Z"/>
      <path class="uuid-b225027a-9619-44ad-9cf1-a34d4c6bd8fc" d="M68.6,11.7s0,0,.1,0l.4,.2c-.1,.3-.3,.6-.5,.8-.2,.3-.4,.5-.6,.7-.2,.2-.5,.4-.8,.6-.3,.2-.7,.4-1.1,.5-.7,.2-1.4,.4-2,.3-.7,0-1.3-.2-1.9-.5s-1.1-.7-1.5-1.3c-.5-.5-.8-1.2-1.1-2-.3-.8-.4-1.5-.4-2.2,0-.7,.2-1.4,.4-2,.3-.6,.7-1.1,1.2-1.6s1.1-.8,1.9-1.1c.4-.1,.7-.2,1-.3,.3,0,.6,0,.9,0,.3,0,.6,0,.9,.1,.3,0,.6,.2,.9,.3v.4c-.1,0-.2,.1-.3,.1,0,0-.1,0-.2,0,0,0-.2,0-.3,0-.1,0-.3,0-.5-.1-.2,0-.4,0-.6,0-.2,0-.5,0-.8,0-.3,0-.6,.1-.9,.2-.6,.2-1.1,.5-1.6,.9-.4,.4-.8,.8-1,1.4-.2,.5-.3,1.1-.4,1.7s.1,1.3,.4,2c.3,.7,.6,1.3,1,1.8,.4,.5,.8,.9,1.3,1.1,.5,.3,1,.4,1.6,.4s1.1,0,1.7-.3c.4-.1,.7-.3,.9-.4,.3-.1,.5-.3,.7-.5s.4-.4,.5-.6c.2-.2,.3-.4,.4-.7,0,0,0,0,0,0,0,0,0,0,0,0Z"/>
      <path class="uuid-b225027a-9619-44ad-9cf1-a34d4c6bd8fc" d="M87.8,10h-.6c0,0-.1,0-.2,0,0,0,0,0-.1-.1l-1.6-2.9-5.2,.6-.9,3.2c0,0,0,.1,0,.2,0,0-.1,0-.2,0h-.6L81.4,0h.8l5.6,9.9Zm-7.5-3l4.7-.6-2.8-5.1c0,0,0-.2-.1-.3,0-.1,0-.2-.1-.3,0,.1,0,.2,0,.4,0,.1,0,.2,0,.3l-1.5,5.6Z"/>
    </g>
  </g>
</svg>