<?xml version="1.0" encoding="UTF-8"?>
<svg id="uuid-620f5d15-1eb7-42b6-bf64-0c00decb8b17" data-name="Layer 2" xmlns="http://www.w3.org/2000/svg" width="118.4" height="131.3" viewBox="0 0 118.4 131.3">
  <defs>
    <style>
      .uuid-797be577-af6e-41dd-a4f3-19f21d1e724f {
        fill: #4d4d4d;
      }
    </style>
  </defs>
  <g id="uuid-ca5b6cc4-ebaa-4abb-9fd8-cb6ab6f680db" data-name="Capa 1">
    <g>
      <path class="uuid-797be577-af6e-41dd-a4f3-19f21d1e724f" d="M8.3,52.2s0,0,0,0c2.2,0,2.3-2.1,2.4-3.1v-.2c.1-2.1,.2-4.2,.4-6.3,1.5-17.7,11.4-30,27.9-34.8,13.3-3.8,26.8-3.8,40.3,0,11.7,3.3,19.9,10.3,24.4,20.7,2.6,6,3.9,12.7,3.9,20.6,0,1,.1,1.9,.8,2.6,.5,.4,1.1,.6,1.8,.6,.7,0,1.3-.3,1.7-.7,.6-.7,.7-1.7,.6-2.5,0-.8,0-1.6-.1-2.3,0-2.1-.2-4.2-.5-6.3-2.3-17.7-11.5-29.9-27.1-36C75.3,.5,66.1,0,61.4,0c-7.1,0-11.6,.3-16.1,1.1C19.8,5.4,6.1,22,5.8,48.9c0,.9,0,1.9,.8,2.6,.4,.4,1,.7,1.8,.7Z"/>
      <path class="uuid-797be577-af6e-41dd-a4f3-19f21d1e724f" d="M59.3,99.5c-.9,0-2-.5-3-.9-1-.5-2-.9-3-.9-3.8,0-6.4,.8-8.9,2.5-1.6,1.1-2.1,2.4-1.2,3.7,.4,.6,.9,1,1.5,1.1,.2,0,.3,0,.5,0,.7,0,1.4-.4,2-.7,3.5-2.3,6.9-2.3,10.3,0,1.2,.8,2.4,.8,3.6,0,3.6-2.4,7-2.4,10.5,0,2,1.4,3.2,.3,3.7-.4,.4-.6,.6-1.2,.5-1.8-.2-.9-.9-1.5-1.6-2-2.3-1.6-5-2.5-7.9-2.5-1.5,0-2.9,.5-4.2,1-1,.4-2,.8-2.8,.8Z"/>
      <path class="uuid-797be577-af6e-41dd-a4f3-19f21d1e724f" d="M117.8,64.7l-1-1.5c-1.3-2-2.6-4.1-3.9-6.1-.8-1.2-1.7-1.5-2.3-1.5h0c-.6,0-1.5,.3-2.3,1.5-1.2,1.8-2.3,3.6-3.4,5.3-.5,.8-1,1.5-1.4,2.3-1.3,2.1,0,3.3,.5,3.7,.6,.4,1.2,.6,1.8,.4,.9-.2,1.5-.9,1.9-1.6l.4-.6c0,1.2,0,2.4,0,3.6,0,.9,0,3.1,2.3,3.2,0,0,.2,0,.2,0,.7,0,1.2-.2,1.7-.6,.7-.7,.8-1.7,.8-2.6,0-1.2,0-2.3,0-3.5,.1,.2,.3,.4,.4,.6,1.4,2.1,3,1.4,3.6,1,1.3-.8,1.6-2.2,.6-3.7Z"/>
      <path class="uuid-797be577-af6e-41dd-a4f3-19f21d1e724f" d="M7.9,73.4c1.6,0,2.4-1.1,2.4-3.1,0-1.1,0-2.2,0-3.4l.3,.5c1.3,2,2.8,1.6,3.6,1.2,.8-.5,1.1-1.1,1.2-1.5,.2-.7,0-1.4-.5-2.2l-1.1-1.7c-1.3-2-2.6-4.1-3.9-6.1-.6-.9-1.4-1.4-2.2-1.4-.8,0-1.6,.5-2.2,1.4-1.3,1.9-2.5,4-3.8,5.9l-1.2,1.9c-.5,.7-.6,1.5-.5,2.1,.1,.4,.4,1.1,1.2,1.5,.6,.4,2.1,1,3.4-.9,.2-.3,.4-.6,.6-.9,0,1,0,2,0,3.1v.6c0,.5,0,1.3,.4,1.9,.4,.7,1.2,1.1,2.1,1.1h0Z"/>
      <path class="uuid-797be577-af6e-41dd-a4f3-19f21d1e724f" d="M45.9,49.6c-1.4-.4-2.8-.8-4.2-1.2-4-1.2-8.2-2.5-12.3-2.8h0c-4.9-.2-8.4,1.8-11.3,3.7-.8,.5-1.7,1.2-1.9,2.2-.1,.6,0,1.3,.5,1.9,.4,.6,.9,1,1.5,1.1,.1,0,.2,0,.3,0,.8,0,1.5-.5,2.1-.9h.2c3.9-3,8.2-3.7,13-2.2,2,.6,4.1,1.2,6.1,1.7,1.5,.4,3,.8,4.5,1.3,1.6,.5,2.9-.1,3.4-1.6,.3-.8,0-1.5-.1-1.8-.3-.6-.9-1-1.7-1.3Z"/>
      <path class="uuid-797be577-af6e-41dd-a4f3-19f21d1e724f" d="M101.2,49.8c-3.2-2.2-6.8-4.3-11.7-4.2h0c-4.4,.4-8.8,1.7-13,2.9-1.2,.4-2.4,.7-3.7,1.1-.8,.2-1.3,.6-1.6,1.2-.2,.4-.4,1-.2,1.9,.2,.7,1,2.3,3.4,1.6,1.2-.3,2.4-.7,3.7-1,2-.5,4.2-1.1,6.2-1.8,5.4-1.7,10-1,14.1,2.2,.7,.5,1.3,.8,1.9,.8s.2,0,.3,0c.4,0,1-.3,1.6-1,.4-.6,.6-1.2,.5-1.9-.1-.7-.6-1.4-1.3-1.8Z"/>
      <path class="uuid-797be577-af6e-41dd-a4f3-19f21d1e724f" d="M95.8,66.1c.1-.6,0-1.2-.5-1.8-1.4-1.9-3.3-.7-3.9-.2-5.4,3.6-10.7,3.6-16.2,0-2.1-1.4-3.3-.6-3.9,.3-.5,.8-1,2.3,1.1,3.8,3.3,2.3,6.8,3.5,10.6,3.6h0c0,0,.1,0,.2,0,3.9,0,7.6-1.2,11-3.5,.7-.5,1.5-1.1,1.7-2.1Z"/>
      <path class="uuid-797be577-af6e-41dd-a4f3-19f21d1e724f" d="M46.2,68.2c.8-.5,2.5-1.7,1.2-3.8-1.4-2.1-3.3-.8-4.1-.3-5.4,3.6-10.6,3.5-16,0-.6-.4-2.6-1.7-3.9,.2-.4,.6-.6,1.2-.5,1.9,.2,1,.9,1.6,1.7,2.1,3.3,2.3,6.9,3.4,10.9,3.5h0c3.9,0,7.5-1.3,10.6-3.5h.2Z"/>
      <path class="uuid-797be577-af6e-41dd-a4f3-19f21d1e724f" d="M70.4,107c-.4-.6-.9-1-1.5-1.1-.9-.2-1.7,.3-2.4,.7-4.8,3.3-9.5,3.3-14.4,0-2.1-1.4-3.3-.6-3.9,.3-.6,.9-1,2.3,1.1,3.8,3,2.1,6.3,3.2,10,3.3h0c3.5,0,6.8-1.1,9.8-3.2,.8-.5,2.5-1.8,1.2-3.7Z"/>
      <path class="uuid-797be577-af6e-41dd-a4f3-19f21d1e724f" d="M62.3,87c-2.2,1.4-4.2,1.5-6.4,0-.7-.5-1.4-.6-2.1-.5-.4,0-1.1,.4-1.6,1.2-.4,.7-.9,2,.9,3.4,1.6,1.2,3.6,1.9,5.9,2h0c2.3-.1,4.2-.7,5.9-1.9,1.4-1,1.7-2.4,.8-3.7-.9-1.2-2.2-1.4-3.5-.5Z"/>
      <path class="uuid-797be577-af6e-41dd-a4f3-19f21d1e724f" d="M47.4,122.8c-1.6-1-3.1-2.1-4.7-3.1-.4-.2-.7-.4-1.1-.6l-.6-.3h-.3c-1.1,0-1.9,.5-2.4,1.4-.6,1.1-.3,2.4,.9,3.2,1.6,1.1,3.2,2.1,4.8,3.2l.7,.5c.6,.4,1.1,.5,1.5,.5s.4,0,.5,0c.5-.1,1.1-.4,1.6-1.3,.4-.7,.8-2.1-1.1-3.3Z"/>
      <path class="uuid-797be577-af6e-41dd-a4f3-19f21d1e724f" d="M15.2,86.4c-.3-.6-.5-1.2-.8-1.8-.7-1.6-1.4-3.3-2.1-5-.5-1.1-1.8-1.5-3-1-1.3,.6-1.9,1.8-1.4,3,.8,2.1,1.7,4.3,2.7,6.5,.4,.9,1.2,1.4,2.1,1.4s.6,0,1-.2c1.1-.4,1.6-1.3,1.6-2.6v-.4Z"/>
      <path class="uuid-797be577-af6e-41dd-a4f3-19f21d1e724f" d="M91.4,107.5c-1-.4-2-.1-2.8,.7l-.3,.3c-1.4,1.4-2.8,2.8-4.1,4.3-.6,.7-.9,1.3-.9,2,0,.4,.2,1.1,.9,1.7,.5,.5,1.1,.7,1.6,.7s1.3-.3,1.9-.9c1.3-1.4,2.8-2.9,4.6-4.8,.3-.3,.5-.7,.6-1,0,0,0-.2,.1-.3l.2-.3v-.4c-.2-.5-.5-1.6-1.7-2.1Z"/>
      <path class="uuid-797be577-af6e-41dd-a4f3-19f21d1e724f" d="M108.8,78.5c-1.3-.3-2.4,.3-2.9,1.5-1,2.2-1.8,4.1-2.5,6.1-.4,1-.2,1.8,0,2.2,.2,.4,.7,1,1.9,1.3h.3c.5,0,1.5-.1,2-1.1,1.3-2.3,2.3-4.7,2.9-7.1,.2-.6,0-1.2-.2-1.8-.3-.5-.9-.9-1.6-1.1Z"/>
      <path class="uuid-797be577-af6e-41dd-a4f3-19f21d1e724f" d="M101.7,93.9c-1.1-.5-2.3-.2-2.9,.8-1.6,2.2-2.8,4.1-4,5.8-.6,1-.5,2.2,.4,3,.5,.4,1,.7,1.6,.7s.7,0,1-.2c1.2-.4,5.4-6.8,5.4-8.1v-.3c-.3-.9-.8-1.5-1.5-1.8Z"/>
      <path class="uuid-797be577-af6e-41dd-a4f3-19f21d1e724f" d="M76.7,119.2l-1.2,.8c-1.6,1-3.1,2-4.7,3.1-1,.6-1.3,1.8-.8,3,.4,.9,1.2,1.4,2.2,1.5h0c1.3,0,7.5-4.1,7.9-5.3,.4-1,.2-2-.5-2.7-.9-.9-2-1-3-.4Z"/>
      <path class="uuid-797be577-af6e-41dd-a4f3-19f21d1e724f" d="M62.7,126.2c-.7,0-1.5,0-2.2,0h-2c-.9,0-1.7,0-2.6,0-1.3,0-2.3,.9-2.4,2.2-.1,1.4,.7,2.5,2.1,2.6,1.3,.2,2.5,.2,3.8,.2s2.5,0,3.7-.2c1.4-.2,2.2-1.3,2.1-2.6-.1-1.3-1.1-2.2-2.4-2.2Z"/>
      <path class="uuid-797be577-af6e-41dd-a4f3-19f21d1e724f" d="M33.2,111.6c-1-1.1-2.1-2.1-3.1-3.2-.4-.4-1-.9-2-1h0c-1,0-1.8,.5-2.2,1.4-.5,1-.3,2.1,.5,2.9,1.5,1.5,2.9,3.1,4.4,4.6,.6,.6,1.3,.9,2,.9h0c.5,0,1.1-.2,1.8-.9,.9-1,.8-2.4-.2-3.5l-1.2-1.2Z"/>
      <path class="uuid-797be577-af6e-41dd-a4f3-19f21d1e724f" d="M17.6,93.7s0,0,0,0h-.2c-.9,.2-1.6,.7-1.9,1.4-.3,.7-.2,1.6,.3,2.4,1,1.8,2.3,3.6,3.8,5.5,.6,.8,1.3,1.2,2.1,1.2s0,0,.1,0c.5,0,1.3-.3,2-1.4,.3-.6,.4-1.5-1.2-4.2-.5-.8-3.1-5-4.9-5Z"/>
    </g>
  </g>
</svg>