<?xml version="1.0" encoding="UTF-8"?>
<svg id="uuid-9642f4e5-8c31-46df-9bf8-1c1ce57fdea4" data-name="Layer 2" xmlns="http://www.w3.org/2000/svg" width="190.7" height="190.9" viewBox="0 0 190.7 190.9">
  <defs>
    <style>
      .uuid-11baa0f9-9967-440c-ba1a-98df7131e3c0 {
        fill: #b28378;
      }
    </style>
  </defs>
  <g id="uuid-e4437870-75ca-49bd-80a5-731f041156db" data-name="Capa 1">
    <g>
      <path class="uuid-11baa0f9-9967-440c-ba1a-98df7131e3c0" d="M61.3,118.5v1.2h-22.2v-1.2c11,0,11-17.3,11-17.3h1.2s-.1,17.3,10,17.3m-1-50.3l18.3,38.5-5.5,13.7h-1.2l-21.8-45.9c-2.8-4.9-6.4-4.9-8.3-5.1v-1.2h18.5Zm49.2,50.3v1.2h-22.1v-1.2c3.1,0,5.3-2.6,5.3-7.6v-42.7h16.2v1.2c-3.2,0-5.6,2-5.6,6.4v35c0,5,3.2,7.6,6.3,7.6"/>
      <path class="uuid-11baa0f9-9967-440c-ba1a-98df7131e3c0" d="M134.6,104.1l-9.3-22.8,5-13.1h1.2c18,43.1,18.6,45,18.6,45,2.5,5.9,4.3,5.2,6.2,5.3v1.2h-21v-1.2c5.7,0,1.9-7.8,1.9-7.8l-2.2-5.4"/>
      <path class="uuid-11baa0f9-9967-440c-ba1a-98df7131e3c0" d="M122.3,13.6c0,.1,0,.3,0,.4,0-.1,.2-.2,.3-.3,0-.1,.2-.2,.3-.3l5.5-5.1c0,0,.2-.1,.3-.1,0,0,.2,0,.3,0l1,.3-3.3,10.2-1.2-.4,2.5-7.5c0,0,0-.2,.1-.3s0-.2,.1-.3l-5.6,5.2c-.2,.2-.4,.2-.6,.2h-.2c-.2-.1-.3-.3-.4-.5l-1.5-7.6c0,.1,0,.3,0,.4,0,.1,0,.2,0,.3l-2.5,7.5-1.2-.4,3.3-10.2,1,.3c.1,0,.2,0,.3,.1,0,0,.1,.1,.1,.3l1.5,7.4c0,.1,0,.3,0,.4Z"/>
      <path class="uuid-11baa0f9-9967-440c-ba1a-98df7131e3c0" d="M143.6,28.2l-1-.6c-.1,0-.2-.2-.2-.2,0,0,0-.2,0-.3l.5-2.7-4.1-2.6-2.2,1.7c0,0-.2,0-.3,.1-.1,0-.2,0-.3,0l-1-.6,9.3-6.8,1.3,.8-2.1,11.4Zm-3.9-7.1l3.4,2.1,.9-4.6c0-.3,.1-.6,.3-1-.2,.1-.3,.3-.4,.4-.1,.1-.3,.2-.4,.3l-3.7,2.8Z"/>
      <path class="uuid-11baa0f9-9967-440c-ba1a-98df7131e3c0" d="M162.8,30.7l-.8,.9-2.5-2.4-6.6,6.9-1.1-1,6.6-6.9-2.5-2.4,.8-.9,6.1,5.8Z"/>
      <path class="uuid-11baa0f9-9967-440c-ba1a-98df7131e3c0" d="M162.6,47.4l-.9-1.2,8.7-6.4,.9,1.2-8.7,6.4Z"/>
      <path class="uuid-11baa0f9-9967-440c-ba1a-98df7131e3c0" d="M172.1,64.3l-.5-1c0-.1,0-.2,0-.3,0-.1,0-.2,.1-.3l1.9-2-2.1-4.3-2.8,.2c0,0-.2,0-.3,0s-.2-.1-.2-.2l-.5-1,11.5-.8,.6,1.3-7.8,8.5Zm.5-8.1l1.7,3.6,3.2-3.4c.2-.2,.5-.5,.8-.7-.2,0-.4,0-.6,.1-.2,0-.3,0-.5,0l-4.7,.4Z"/>
      <path class="uuid-11baa0f9-9967-440c-ba1a-98df7131e3c0" d="M185,76.4c0,0-.1,0-.2,0,0,0,0,0-.1-.2,0,0,0-.2,0-.3,0-.1,.1-.3,.2-.5,0-.2,.1-.4,.1-.7,0-.3,0-.6,0-.9,0-.3-.2-.6-.3-.8s-.3-.4-.5-.5c-.2-.1-.4-.2-.6-.2-.2,0-.4,0-.7,0-.3,0-.5,.2-.7,.4-.2,.2-.3,.4-.4,.7,0,.3-.1,.6-.2,.9,0,.3,0,.7,0,1,0,.3,0,.7-.1,1s-.2,.6-.3,.9c-.1,.3-.4,.5-.6,.8-.3,.2-.6,.4-1,.5-.5,.1-.9,.1-1.3,0-.4,0-.8-.2-1.2-.4-.4-.2-.7-.5-1-.9s-.5-.9-.6-1.4c-.2-.7-.2-1.3,0-1.9,.1-.6,.3-1.2,.6-1.7l.8,.2c0,0,.1,0,.2,.1,0,0,0,.1,.1,.2,0,.1,0,.2,0,.4,0,.2-.2,.4-.2,.6,0,.2-.1,.5-.2,.8,0,.3,0,.7,0,1.1,0,.3,.2,.6,.4,.9,.2,.2,.3,.4,.6,.6,.2,.1,.4,.2,.7,.3,.3,0,.5,0,.8,0,.3,0,.6-.2,.7-.4,.2-.2,.3-.4,.4-.7,0-.3,.1-.6,.2-.9,0-.3,0-.7,0-1,0-.3,0-.7,.1-1,0-.3,.2-.6,.3-.9,.2-.3,.4-.5,.6-.8,.3-.2,.6-.4,1.1-.5s.7-.1,1.1,0c.4,0,.7,.2,1.1,.4,.3,.2,.6,.5,.9,.9,.3,.4,.5,.8,.6,1.3,.1,.6,.2,1.1,.1,1.7s-.2,1-.5,1.5l-.8-.2Z"/>
      <path class="uuid-11baa0f9-9967-440c-ba1a-98df7131e3c0" d="M176.8,110.5v-1.1c.1-.1,.2-.2,.3-.3,0,0,.2-.1,.3-.1l2.7-.7,.6-4.8-2.5-1.3c0,0-.2-.1-.2-.2,0,0,0-.2,0-.3v-1.1l10.3,5.5-.2,1.5-11.2,3Zm4.8-6.5l-.5,4,4.5-1.2c.3,0,.6-.1,1-.2-.2,0-.4-.2-.5-.2-.2,0-.3-.1-.4-.2l-4.1-2.2Z"/>
      <path class="uuid-11baa0f9-9967-440c-ba1a-98df7131e3c0" d="M175.8,125.8c-.1,0-.3,0-.4,0,.1,0,.2,.2,.3,.3,0,0,.2,.2,.3,.3l4.9,5.7c0,.1,.1,.2,.1,.3s0,.2,0,.3l-.4,1-10.1-3.8,.5-1.2,7.4,2.8c0,0,.2,0,.3,.1,.1,0,.2,0,.3,.2l-5-5.8c-.2-.2-.2-.4-.1-.6v-.2c.2-.2,.3-.3,.6-.4l7.6-1.1c-.1,0-.2,0-.4-.1-.1,0-.2,0-.3-.1l-7.4-2.8,.5-1.2,10.1,3.8-.4,1c0,.1,0,.2-.1,.3,0,0-.1,0-.3,.1l-7.5,1.1c-.1,0-.3,0-.4,0Z"/>
      <path class="uuid-11baa0f9-9967-440c-ba1a-98df7131e3c0" d="M160.4,146.5l.6-.9c0-.1,.2-.2,.3-.2,0,0,.2,0,.3,0l2.7,.6,2.7-4-1.6-2.3c0,0,0-.2,0-.3,0-.1,0-.2,0-.3l.6-.9,6.4,9.6-.8,1.2-11.3-2.6Zm7.3-3.5l-2.3,3.3,4.6,1.1c.3,0,.6,.2,1,.3-.1-.2-.3-.3-.4-.5-.1-.1-.2-.3-.3-.4l-2.6-3.9Z"/>
      <path class="uuid-11baa0f9-9967-440c-ba1a-98df7131e3c0" d="M150.9,163.6c-.5-.6-.9-1.2-1.2-1.9-.3-.7-.4-1.3-.3-2,0-.7,.2-1.3,.5-1.9,.3-.6,.8-1.2,1.3-1.7l3-2.7,7.2,7.9-3,2.7c-.6,.5-1.2,.9-1.9,1.2-.7,.2-1.3,.4-2,.3-.7,0-1.3-.2-1.9-.5-.6-.3-1.2-.8-1.8-1.4Zm1.1-1c.4,.5,.9,.9,1.4,1.1s1,.4,1.5,.5,1,0,1.4-.2c.5-.2,.9-.5,1.4-.8l1.9-1.7-5.7-6.2-1.9,1.7c-.4,.4-.7,.8-1,1.3-.2,.5-.3,.9-.3,1.4s.1,1,.3,1.5,.5,1,1,1.5Z"/>
      <path class="uuid-11baa0f9-9967-440c-ba1a-98df7131e3c0" d="M132.6,175.2c-.4-.7-.6-1.4-.7-2.1,0-.7,0-1.4,.1-2,.2-.6,.5-1.2,.9-1.8,.4-.5,1-1,1.7-1.4,.7-.4,1.4-.6,2.1-.7,.7,0,1.4,0,2,.2,.6,.2,1.2,.5,1.8,1,.5,.5,1,1.1,1.4,1.8,.4,.7,.6,1.4,.7,2.1,0,.7,0,1.4-.1,2s-.5,1.2-.9,1.8c-.4,.5-1,1-1.7,1.4s-1.4,.6-2.1,.7c-.7,0-1.4,0-2-.2-.6-.2-1.2-.5-1.8-1-.5-.5-1-1.1-1.4-1.8Zm1.3-.7c.3,.6,.7,1.1,1.1,1.4,.4,.4,.8,.6,1.3,.8,.5,.2,.9,.2,1.5,.2,.5,0,1-.2,1.5-.5,.5-.3,.9-.6,1.2-1,.3-.4,.5-.8,.7-1.3,.1-.5,.1-1,0-1.5,0-.5-.3-1.1-.6-1.7-.3-.6-.7-1.1-1.1-1.4-.4-.4-.8-.6-1.3-.8-.5-.2-.9-.2-1.5-.2-.5,0-1,.2-1.5,.5-.5,.3-.9,.6-1.2,1-.3,.4-.5,.8-.7,1.3-.1,.5-.1,1,0,1.5,0,.5,.3,1.1,.6,1.7Z"/>
      <path class="uuid-11baa0f9-9967-440c-ba1a-98df7131e3c0" d="M87.6,179.8c0,0-.2,0-.2-.1l-.5-.6c.5-.5,1-.9,1.7-1.1,.6-.3,1.4-.4,2.3-.3,.8,0,1.5,.2,2.1,.5,.6,.3,1.1,.7,1.6,1.2,.4,.5,.7,1.1,1,1.8,.2,.7,.3,1.4,.3,2.2s-.2,1.5-.5,2.2c-.3,.7-.7,1.2-1.2,1.7-.5,.5-1.1,.8-1.8,1-.7,.2-1.4,.3-2.2,.3-.8,0-1.5-.2-2-.5-.6-.3-1.1-.6-1.5-1.1l.5-.6s0,0,.1-.1,.1,0,.2,0c0,0,.1,0,.2,0,0,0,.2,.1,.3,.2,0,0,.2,.2,.3,.2,.1,0,.3,.2,.5,.2,.2,0,.4,.1,.6,.2,.2,0,.5,0,.8,.1,.6,0,1.1,0,1.6-.2,.5-.2,.9-.4,1.3-.8,.4-.3,.7-.8,.9-1.3,.2-.5,.3-1.1,.4-1.7,0-.7,0-1.3-.2-1.8-.2-.5-.4-1-.7-1.4-.3-.4-.7-.7-1.1-.9-.4-.2-.9-.3-1.5-.4-.3,0-.6,0-.9,0-.3,0-.5,0-.7,.1-.2,0-.4,.2-.6,.3-.2,.1-.4,.3-.6,.4,0,0-.2,.1-.3,.1Z"/>
      <path class="uuid-11baa0f9-9967-440c-ba1a-98df7131e3c0" d="M75.1,175.3l1.4,.3-2.5,10.5-1.4-.3,2.5-10.5Z"/>
      <path class="uuid-11baa0f9-9967-440c-ba1a-98df7131e3c0" d="M61.7,175.6l1.8-4.1,1.3,.6-4.4,9.8-2.8-1.2c-.6-.3-1.1-.6-1.5-.9-.4-.3-.7-.7-.9-1-.2-.4-.3-.8-.3-1.2s.1-.8,.3-1.2,.4-.6,.6-.9c.2-.3,.5-.5,.8-.6,.3-.1,.7-.2,1-.3,.4,0,.8,0,1.2,0-.1-.2-.2-.4-.3-.6l-1.1-5.2,1.2,.5c.2,.1,.4,.3,.4,.5l1,4.6c0,.1,0,.3,.1,.3,0,0,.2,.2,.4,.3l1,.4Zm-.4,1l-1.4-.6c-.4-.2-.8-.3-1.1-.3-.3,0-.6,0-.9,0-.3,0-.5,.2-.7,.4-.2,.2-.4,.4-.5,.7-.3,.6-.3,1.1,0,1.6,.3,.5,.8,.9,1.5,1.2l1.5,.6,1.6-3.7Z"/>
      <path class="uuid-11baa0f9-9967-440c-ba1a-98df7131e3c0" d="M45.6,162.5c-.4-.3-.7-.4-1.1-.5-.4,0-.7,0-1.1,0-.4,0-.7,.2-1,.4s-.6,.5-.9,.9l-3.9,5.2-1.2-.9,3.9-5.2c.4-.5,.8-.9,1.3-1.2,.5-.3,1-.5,1.5-.6,.5,0,1.1,0,1.6,0,.6,.1,1.1,.4,1.6,.8,.5,.4,.9,.8,1.2,1.3,.3,.5,.5,1,.5,1.5,0,.5,0,1.1-.1,1.6-.2,.5-.4,1.1-.8,1.6l-3.9,5.2-1.2-.9,3.9-5.2c.3-.4,.5-.7,.6-1.1,.1-.4,.2-.7,.1-1.1,0-.4-.1-.7-.3-1-.2-.3-.5-.6-.8-.9Z"/>
      <path class="uuid-11baa0f9-9967-440c-ba1a-98df7131e3c0" d="M31.1,148.6c-.2-.2-.4-.4-.5-.6-.2-.2-.4-.3-.5-.4-.2-.1-.4-.2-.5-.3-.2,0-.4-.2-.6-.3l-1.8,1.5,1.1,1.3c0,0,0,.1,0,.2,0,0,0,.1,0,.2l-.6,.5-2.1-2.5,3.2-2.7c.3,0,.6,.2,.9,.3,.3,.1,.6,.3,.9,.5,.3,.2,.6,.4,.9,.7,.3,.3,.6,.6,.9,.9,.5,.6,.9,1.2,1.1,1.9,.2,.7,.3,1.3,.2,2,0,.7-.3,1.3-.6,2-.3,.6-.8,1.2-1.5,1.7-.6,.5-1.3,.9-2,1.1-.7,.2-1.4,.3-2,.3-.7,0-1.3-.3-2-.6-.6-.3-1.2-.8-1.8-1.5-.3-.3-.5-.6-.7-1-.2-.3-.3-.6-.4-1-.1-.3-.2-.6-.2-.9s0-.6,0-.9h.8c.2-.1,.3,0,.4,0,0,0,0,.1,.1,.3,0,.1,0,.3,0,.5,0,.2,0,.4,.1,.6,0,.2,.2,.5,.3,.8,.1,.3,.4,.6,.6,.9,.4,.5,.8,.8,1.3,1.1,.5,.2,1,.4,1.5,.4,.5,0,1,0,1.5-.2,.5-.2,1-.5,1.5-.9,.5-.4,.9-.9,1.2-1.4,.3-.5,.5-1,.5-1.5,0-.5,0-1-.2-1.5-.2-.5-.4-1-.8-1.4Z"/>
      <path class="uuid-11baa0f9-9967-440c-ba1a-98df7131e3c0" d="M22.6,134.2l.7,1.3-9.4,5.2-.7-1.3,9.4-5.2Z"/>
      <path class="uuid-11baa0f9-9967-440c-ba1a-98df7131e3c0" d="M15.5,116.3l.4,1.1c0,.1,0,.2,0,.3,0,0,0,.2-.2,.2l-2.1,1.8,1.5,4.6h2.8c0,.1,.2,.2,.3,.2,0,0,.2,.1,.2,.3l.4,1.1-11.6-.7-.5-1.4,8.8-7.5Zm-1.6,7.9l-1.3-3.8-3.6,3c-.2,.2-.5,.4-.9,.6,.2,0,.4,0,.6,0,.2,0,.3,0,.5,0l4.7,.2Z"/>
      <path class="uuid-11baa0f9-9967-440c-ba1a-98df7131e3c0" d="M9,93.1l4,.2v1.4l-10.8-.4v-3.2c.2-.7,.3-1.3,.4-1.8,.2-.5,.4-.9,.7-1.2,.3-.3,.7-.5,1.1-.7,.4-.1,.9-.2,1.4-.2,.5,0,1,.1,1.4,.3,.4,.2,.8,.5,1,.8s.5,.8,.6,1.3c.1,.5,.2,1.1,.2,1.7v1.7Zm-1.2,0v-1.7c0-.4,0-.8,0-1.1,0-.3-.2-.6-.4-.8-.2-.2-.4-.4-.7-.5-.3-.1-.6-.2-.9-.2-.7,0-1.2,.2-1.6,.6-.4,.4-.6,1-.7,1.9v1.7l4.4,.2Z"/>
      <path class="uuid-11baa0f9-9967-440c-ba1a-98df7131e3c0" d="M13.9,76.3l1.1-4.5,1.2,.3-1.5,5.9-10.4-2.6,.3-1.4,9.3,2.3Z"/>
      <path class="uuid-11baa0f9-9967-440c-ba1a-98df7131e3c0" d="M23.4,54.9l-.5,1c0,.1-.1,.2-.2,.2s-.2,0-.3,0l-2.8-.2-2.1,4.3,1.9,2c0,0,.1,.2,.1,.3,0,.1,0,.2,0,.3l-.5,1-7.8-8.5,.6-1.3,11.5,.8Zm-6.7,4.6l1.7-3.6-4.7-.4c-.3,0-.6,0-1.1-.1,.2,.1,.3,.3,.4,.4s.2,.2,.3,.3l3.2,3.4Z"/>
      <path class="uuid-11baa0f9-9967-440c-ba1a-98df7131e3c0" d="M24.6,37.2c0,0,0,.2,0,.2,0,0,0,.1,0,.2,0,0-.1,.1-.3,.2-.1,0-.3,0-.5,.2-.2,0-.4,.2-.6,.3-.2,.1-.4,.3-.6,.6-.2,.3-.3,.5-.4,.8s-.1,.5-.1,.7,0,.4,.2,.6c.1,.2,.3,.4,.4,.5,.2,.2,.5,.3,.7,.3,.2,0,.5,0,.8-.2,.3-.1,.5-.2,.8-.4,.3-.2,.5-.4,.8-.6,.3-.2,.6-.4,.9-.5s.6-.3,.9-.3,.6,0,1,0c.3,0,.7,.2,1,.5,.4,.3,.7,.6,.9,1,.2,.4,.4,.8,.4,1.2s0,.9-.1,1.3c-.1,.5-.4,.9-.7,1.4-.4,.6-.9,1-1.5,1.3s-1.1,.5-1.7,.5l-.3-.8c0,0,0-.1,0-.2,0,0,0-.1,0-.2,0,0,.2-.1,.4-.2s.4,0,.6-.2c.2,0,.5-.2,.7-.4s.5-.4,.8-.7c.2-.3,.4-.5,.5-.8,0-.3,.1-.5,.1-.8s0-.5-.2-.7c-.1-.2-.3-.4-.5-.6-.3-.2-.5-.3-.8-.3-.3,0-.5,0-.8,.1s-.5,.2-.8,.4c-.3,.2-.5,.4-.8,.6-.3,.2-.6,.4-.9,.5s-.6,.3-.9,.3-.6,0-1,0c-.3,0-.7-.3-1.1-.6-.3-.2-.5-.5-.7-.8-.2-.3-.3-.7-.4-1.1,0-.4,0-.8,.1-1.2,.1-.4,.3-.9,.7-1.3,.4-.5,.8-.9,1.2-1.1,.5-.3,.9-.4,1.4-.5l.3,.7Z"/>
      <path class="uuid-11baa0f9-9967-440c-ba1a-98df7131e3c0" d="M37.9,21.8l.8,.9-2.6,2.3,6.2,7.2-1.1,1-6.2-7.2-2.6,2.3-.8-.9,6.4-5.5Z"/>
      <path class="uuid-11baa0f9-9967-440c-ba1a-98df7131e3c0" d="M54.6,23.6l-1.3,.7-5.5-9.3,1.3-.7,5.5,9.3Z"/>
      <path class="uuid-11baa0f9-9967-440c-ba1a-98df7131e3c0" d="M70.4,14.3c0,0,.2,0,.2,0l.7,.4c-.2,.6-.6,1.2-1.1,1.7-.5,.5-1.2,.9-2,1.2-.7,.3-1.4,.4-2.1,.3-.7,0-1.3-.2-1.9-.5-.6-.3-1.1-.7-1.6-1.3-.5-.6-.8-1.2-1.1-2s-.4-1.5-.4-2.2c0-.7,.2-1.4,.5-2,.3-.6,.7-1.2,1.2-1.6,.5-.5,1.2-.8,1.9-1.1,.7-.3,1.4-.4,2-.3,.6,0,1.2,.2,1.8,.4l-.2,.8c0,0,0,.1,0,.2s0,0-.2,.1c0,0-.1,0-.2,0,0,0-.2,0-.3,0-.1,0-.3,0-.4,0-.2,0-.3,0-.5,0-.2,0-.4,0-.7,0-.2,0-.5,.1-.8,.2-.5,.2-1,.5-1.4,.8s-.7,.8-.9,1.2c-.2,.5-.3,1-.3,1.5,0,.6,.1,1.1,.3,1.8,.2,.6,.5,1.2,.9,1.6,.4,.4,.8,.8,1.2,1,.4,.2,.9,.4,1.4,.4,.5,0,1,0,1.5-.2,.3-.1,.6-.2,.8-.3,.2-.1,.4-.3,.6-.4s.3-.3,.5-.5c.1-.2,.3-.4,.4-.6,0,0,.1-.2,.2-.2Z"/>
      <path class="uuid-11baa0f9-9967-440c-ba1a-98df7131e3c0" d="M90.7,12.8h-1.1c-.1,.2-.2,.1-.3,0,0,0-.2-.1-.2-.2l-1.3-2.5-4.8,.6-.7,2.7c0,0,0,.2-.1,.3,0,0-.2,.1-.3,.1h-1.1l3-11.1,1.5-.2,5.6,10.2Zm-7.5-3.1l4-.5-2.2-4.1c-.1-.3-.3-.6-.4-1,0,.2,0,.4,0,.6,0,.2,0,.3,0,.5l-1.1,4.5Z"/>
    </g>
  </g>
</svg>