<?xml version="1.0" encoding="UTF-8"?>
<svg id="uuid-8f09aff0-7d4d-458a-b36b-2a5d6908fd49" data-name="Layer 2" xmlns="http://www.w3.org/2000/svg" width="106.9" height="122.8" viewBox="0 0 106.9 122.8">
  <defs>
    <style>
      .uuid-69783755-298f-461a-ba22-49a850d09058 {
        fill: #4d4d4d;
      }
    </style>
  </defs>
  <g id="uuid-1dcbf72c-6533-47aa-8c33-e5a0d130d7fb" data-name="Capa 1">
    <g>
      <path class="uuid-69783755-298f-461a-ba22-49a850d09058" d="M77.9,64.8c-16,0-29,13-29,29s13,29,29,29,29-13,29-29-13-29-29-29Zm16.9,20.2l-16.6,20s0,0,0,0c-1.1,1.2-2.5,1.9-4.1,1.9h-.2c-1.5,0-2.9-.6-4-1.6,0,0,0-.1-.1-.1l-8.6-9.5c-1-1.1-.9-2.8,.2-3.8,1.1-1,2.8-.9,3.8,.2l8.5,9.4c0,0,.1,0,.2,0,0,0,.1,0,.2,0l16.6-20c.9-1.2,2.7-1.3,3.8-.4,1.1,1,1.3,2.7,.4,3.8Z"/>
      <g>
        <path class="uuid-69783755-298f-461a-ba22-49a850d09058" d="M42.4,112.1H6.9c-3.8,0-6.9-3.1-6.9-6.9V6.9C0,3.1,3.1,0,6.9,0h59c1.3,0,2.3,1,2.3,2.3s-1,2.3-2.3,2.3H6.9c-1.2,0-2.2,1-2.2,2.2V105.3c0,1.2,1,2.2,2.2,2.2H42.4c1.3,0,2.3,1,2.3,2.3s-1,2.3-2.3,2.3Z"/>
        <path class="uuid-69783755-298f-461a-ba22-49a850d09058" d="M89.7,60.5c-1.3,0-2.3-1-2.3-2.3V6.9c0-1.2-1-2.2-2.2-2.2h-6.6c-1.3,0-2.3-1-2.3-2.3s1-2.3,2.3-2.3h6.6c3.8,0,6.9,3.1,6.9,6.9V58.2c0,1.3-1,2.3-2.3,2.3Z"/>
        <path class="uuid-69783755-298f-461a-ba22-49a850d09058" d="M72.8,30.9H20.2c-1.3,0-2.3-1-2.3-2.3s1-2.3,2.3-2.3h52.6c1.3,0,2.3,1,2.3,2.3s-1,2.3-2.3,2.3Z"/>
        <path class="uuid-69783755-298f-461a-ba22-49a850d09058" d="M72.8,57.2H20.2c-1.3,0-2.3-1-2.3-2.3s1-2.3,2.3-2.3h52.6c1.3,0,2.3,1,2.3,2.3s-1,2.3-2.3,2.3Z"/>
        <path class="uuid-69783755-298f-461a-ba22-49a850d09058" d="M43.8,82.5H20.2c-1.3,0-2.3-1-2.3-2.3s1-2.3,2.3-2.3h23.5c1.3,0,2.3,1,2.3,2.3s-1,2.3-2.3,2.3Z"/>
      </g>
    </g>
  </g>
</svg>