<?xml version="1.0" encoding="UTF-8"?>
<svg id="uuid-713eed2b-15e8-4744-9a8d-635ebac39f5c" data-name="Layer 2" xmlns="http://www.w3.org/2000/svg" width="177" height="179.9" viewBox="0 0 177 179.9">
  <defs>
    <style>
      .uuid-d1358b96-96d3-45b8-9f18-6ad2e8aa4043 {
        fill: #4d4d4d;
      }
    </style>
  </defs>
  <g id="uuid-bb5514cd-5347-4fc0-918f-147d953c6af7" data-name="Capa 1">
    <g>
      <path class="uuid-d1358b96-96d3-45b8-9f18-6ad2e8aa4043" d="M176.9,106.1l-8.9,1.9v-.6l2.5-.5,.8-4.3-2.1-1.3v-.6l7.8,4.8v.6Zm-5.2-3.1l-.7,3.8,5-1.1-4.3-2.7Z"/>
      <path class="uuid-d1358b96-96d3-45b8-9f18-6ad2e8aa4043" d="M170.8,113.4l-3.3-1-1.4,4.4-.5-.2,1.5-5,8,2.5-1.5,5-.6-.2,1.4-4.4-3-.9-1.2,3.9-.5-.2,1.2-3.9Z"/>
      <path class="uuid-d1358b96-96d3-45b8-9f18-6ad2e8aa4043" d="M162.6,125.1c-.2-.7,0-1.4,.3-2.2,.4-.9,.9-1.4,1.6-1.7,.7-.3,1.3-.3,1.9,0l-.3,.6c-.5-.2-1-.2-1.5,0-.5,.2-.9,.7-1.2,1.3-.3,.7-.4,1.2-.2,1.8,.1,.5,.5,.8,1,1,.8,.2,1.6-.3,2.2-1.1l1-1.1c.7-.7,1.6-1.1,2.6-.7,.6,.2,.9,.7,1.1,1.3s0,1.3-.2,1.9c-.7,1.6-1.9,2.1-3.1,1.6l.3-.6c.4,.2,.8,.2,1.2,0,.4-.2,.8-.6,1-1.2,.2-.5,.3-.9,.2-1.4,0-.5-.3-.8-.8-1-2-.9-3.2,3.7-5.8,2.9-.8-.3-1.2-.7-1.4-1.4Z"/>
      <path class="uuid-d1358b96-96d3-45b8-9f18-6ad2e8aa4043" d="M158.8,131.2l6.7,4,1.5-2.5,.5,.3-3.3,5.6-.5-.3,1.5-2.5-6.7-4,.3-.6Z"/>
      <path class="uuid-d1358b96-96d3-45b8-9f18-6ad2e8aa4043" d="M157.6,140.6l-3.3-2.6,.4-.5,6.6,5.2-.4,.5-2.9-2.2-3.2,4.1,2.9,2.2-.4,.5-6.6-5.2,.4-.5,3.3,2.6,3.2-4.1Z"/>
      <path class="uuid-d1358b96-96d3-45b8-9f18-6ad2e8aa4043" d="M150.1,149.3l-2.5-2.5-3.3,3.3-.4-.4,3.7-3.7,5.9,5.9-3.7,3.7-.4-.4,3.3-3.3-2.2-2.3-2.9,2.9-.4-.4,2.9-2.9Z"/>
      <path class="uuid-d1358b96-96d3-45b8-9f18-6ad2e8aa4043" d="M139,153.9l4.8,6.1,2.3-1.8,.4,.5-5.1,4-.4-.5,2.3-1.8-4.8-6.1,.5-.4Z"/>
      <path class="uuid-d1358b96-96d3-45b8-9f18-6ad2e8aa4043" d="M136.8,165.8l-4.5-7.1,.5-.4,4.5,7.1-.5,.4Z"/>
      <path class="uuid-d1358b96-96d3-45b8-9f18-6ad2e8aa4043" d="M127.8,163.1c-.9-.3-1.8-.2-2.8,.3-1.4,.7-2,1.9-1.9,3.1l-.6,.3c-.1-.5,0-1.2,.2-1.9,.3-.7,1-1.5,2-2,1.2-.6,2.3-.7,3.4-.3,1,.4,1.8,1.2,2.4,2.3,.6,1.1,.7,2.3,.4,3.3-.3,1.1-1.1,1.9-2.2,2.5-1,.5-2,.6-2.7,.4-.7-.2-1.3-.5-1.6-.9l.6-.3c.8,.8,2.1,.9,3.5,.2,.9-.5,1.5-1.2,1.8-2.1,.3-.9,.2-1.9-.3-2.9s-1.2-1.7-2.1-2Z"/>
      <path class="uuid-d1358b96-96d3-45b8-9f18-6ad2e8aa4043" d="M113.3,174.9l-1.7-6.7,.6-.2,2,8.1h-.6l-5.4-6.4-1.4,8.2h-.6l-2-8,.6-.2,1.7,6.7,1.3-7.4h.5l4.9,5.7Z"/>
      <path class="uuid-d1358b96-96d3-45b8-9f18-6ad2e8aa4043" d="M99.6,174.8l-.4-3.5-4.6,.5v-.6l5.2-.6,.9,8.3-5.2,.6v-.6l4.5-.5-.3-3.2-4,.4v-.6l4-.4Z"/>
      <path class="uuid-d1358b96-96d3-45b8-9f18-6ad2e8aa4043" d="M87.3,179.8c-1.2,0-2.2-.4-2.9-1.2-.7-.8-1.1-1.8-1.1-3.1,0-1.2,.4-2.2,1.2-3,.8-.8,1.8-1.2,2.9-1.1h3v8.4h-3.1Zm.1-7.9c-1,0-1.9,.3-2.5,1-.6,.7-1,1.5-1,2.6,0,1,.3,1.9,.9,2.6,.6,.7,1.4,1.1,2.4,1.1h2.4v-7.2h-2.2Z"/>
      <path class="uuid-d1358b96-96d3-45b8-9f18-6ad2e8aa4043" d="M77.5,179.2l1-8.3h.6l-1,8.4h-.6Z"/>
      <path class="uuid-d1358b96-96d3-45b8-9f18-6ad2e8aa4043" d="M72.3,171.4c-.5-.8-1.3-1.3-2.3-1.6-1.6-.4-2.8,.2-3.4,1.2h-.7c.2-.6,.7-1.1,1.4-1.5,.7-.4,1.7-.5,2.8-.3,1.3,.3,2.3,.9,2.8,1.9,.5,1,.7,2.1,.4,3.3-.3,1.3-.9,2.2-1.8,2.8s-2,.8-3.3,.5c-1.1-.2-1.9-.8-2.4-1.4-.5-.6-.7-1.2-.7-1.7h.7c.1,1.2,1,2.2,2.5,2.6,1,.2,1.9,0,2.7-.5,.8-.5,1.3-1.3,1.6-2.4,.2-1.1,.1-2-.3-2.9Z"/>
      <path class="uuid-d1358b96-96d3-45b8-9f18-6ad2e8aa4043" d="M59,174.9l2.7-7.9,.6,.2-2.7,7.9-.6-.2Z"/>
      <path class="uuid-d1358b96-96d3-45b8-9f18-6ad2e8aa4043" d="M48.4,170.5l-.6-.3,3.5-7.6,.5,.2,1.8,8.9,3.1-6.7,.6,.3-3.5,7.6-.5-.2-1.8-8.9-3.1,6.7Z"/>
      <path class="uuid-d1358b96-96d3-45b8-9f18-6ad2e8aa4043" d="M44.7,163.5l1.8-3-3.9-2.4,.3-.5,4.5,2.8-4.4,7.1-4.5-2.8,.3-.5,3.9,2.4,1.7-2.7-3.4-2.2,.3-.5,3.4,2.2Z"/>
      <path class="uuid-d1358b96-96d3-45b8-9f18-6ad2e8aa4043" d="M33.1,151.8c0-.9-.4-1.8-1.2-2.5-1.2-1.1-2.5-1.2-3.5-.7l-.5-.5c.4-.3,1.1-.5,1.9-.4,.8,0,1.7,.4,2.5,1.2,1,.9,1.5,2,1.4,3.1,0,1.1-.5,2.1-1.3,3-.9,.9-1.9,1.4-3,1.5-1.1,0-2.1-.4-3.1-1.2-.8-.8-1.2-1.7-1.3-2.5,0-.8,0-1.4,.3-1.8l.5,.5c-.4,1-.2,2.3,.9,3.4,.8,.7,1.6,1.1,2.6,1,.9,0,1.8-.5,2.6-1.3s1.2-1.7,1.2-2.6Z"/>
      <path class="uuid-d1358b96-96d3-45b8-9f18-6ad2e8aa4043" d="M23.3,145.4l2.7-2.2-2.9-3.6,.4-.4,3.3,4.1-6.5,5.3-3.3-4.1,.4-.4,2.9,3.6,2.5-2-2.6-3.2,.4-.4,2.6,3.2Z"/>
      <path class="uuid-d1358b96-96d3-45b8-9f18-6ad2e8aa4043" d="M10.8,135.3l-.3-.5,7.1-4.4,.3,.5-3.3,8.5,6.2-3.9,.3,.5-7.1,4.4-.3-.5,3.3-8.5-6.2,3.9Z"/>
      <path class="uuid-d1358b96-96d3-45b8-9f18-6ad2e8aa4043" d="M14.5,124.2l-7.1,3.3,1.2,2.7-.5,.2-2.7-5.9,.5-.2,1.2,2.7,7.1-3.3,.3,.6Z"/>
      <path class="uuid-d1358b96-96d3-45b8-9f18-6ad2e8aa4043" d="M7.5,117.8l3.3-1.1-1.4-4.4,.5-.2,1.6,5-8,2.6-1.6-5,.5-.2,1.4,4.4,3-1-1.2-3.9,.5-.2,1.2,3.9Z"/>
      <path class="uuid-d1358b96-96d3-45b8-9f18-6ad2e8aa4043" d="M4.6,104.9l3.3-2.5v.7l-3,2.4,.5,2.8,3.5-.7v.6l-8.1,1.6-.6-3.1c-.1-.8,0-1.4,.3-2,.3-.6,.8-.9,1.5-1.1,.5,0,1,0,1.4,.1,.5,.2,.8,.5,1,.9l.2,.2Zm-.3,1c-.1-.5-.4-1-.8-1.3-.4-.3-.9-.4-1.5-.3-1,.2-1.6,1.1-1.3,2.3l.5,2.5,3.6-.7-.5-2.5Z"/>
      <path class="uuid-d1358b96-96d3-45b8-9f18-6ad2e8aa4043" d="M.1,73.3l8.9-1.8v.6l-2.5,.5-.8,4.3,2.1,1.3v.6l-7.8-4.9v-.6Zm5.2,3.2l.7-3.8-5,1,4.3,2.7Z"/>
      <path class="uuid-d1358b96-96d3-45b8-9f18-6ad2e8aa4043" d="M6.3,66l3.3,1,1.4-4.4,.5,.2-1.6,5-8-2.5,1.6-5,.5,.2-1.4,4.4,3,1,1.2-3.9,.5,.2-1.2,3.9Z"/>
      <path class="uuid-d1358b96-96d3-45b8-9f18-6ad2e8aa4043" d="M14.5,54.5c.2,.7,0,1.4-.3,2.2-.4,.9-.9,1.4-1.6,1.7-.7,.3-1.3,.3-1.9,0l.3-.6c.5,.2,1,.2,1.5,0,.5-.2,.9-.7,1.2-1.3,.3-.7,.4-1.2,.2-1.7-.1-.5-.5-.8-1-1-.8-.2-1.6,.3-2.2,1.1l-1,1.1c-.7,.7-1.6,1.1-2.6,.7-.6-.2-.9-.7-1.1-1.3-.2-.6,0-1.3,.2-1.9,.7-1.6,1.9-2.1,3.1-1.6l-.3,.6c-.4-.2-.8-.2-1.2,0-.4,.2-.8,.6-1,1.2-.2,.4-.3,.9-.2,1.4,0,.5,.3,.8,.8,1,2,.9,3.2-3.7,5.8-2.8,.8,.3,1.2,.7,1.4,1.4Z"/>
      <path class="uuid-d1358b96-96d3-45b8-9f18-6ad2e8aa4043" d="M18.4,48.3l-6.7-4-1.5,2.5-.5-.3,3.3-5.6,.5,.3-1.5,2.5,6.7,4-.3,.6Z"/>
      <path class="uuid-d1358b96-96d3-45b8-9f18-6ad2e8aa4043" d="M19.6,38.9l3.3,2.6-.4,.5-6.6-5.2,.4-.5,2.9,2.3,3.2-4.1-2.9-2.3,.4-.5,6.6,5.2-.4,.5-3.3-2.6-3.2,4.1Z"/>
      <path class="uuid-d1358b96-96d3-45b8-9f18-6ad2e8aa4043" d="M27.1,30.3l2.5,2.5,3.3-3.2,.4,.4-3.7,3.7-5.9-6,3.7-3.7,.4,.4-3.3,3.2,2.2,2.3,2.9-2.9,.4,.4-2.9,2.9Z"/>
      <path class="uuid-d1358b96-96d3-45b8-9f18-6ad2e8aa4043" d="M38.2,25.8l-4.8-6.2-2.3,1.8-.4-.5,5.1-4,.4,.5-2.3,1.8,4.8,6.2-.5,.4Z"/>
      <path class="uuid-d1358b96-96d3-45b8-9f18-6ad2e8aa4043" d="M40.5,13.9l4.5,7.1-.5,.3-4.5-7.1,.5-.3Z"/>
      <path class="uuid-d1358b96-96d3-45b8-9f18-6ad2e8aa4043" d="M49.5,16.6c.9,.3,1.8,.2,2.8-.3,1.5-.7,2-1.9,1.9-3l.6-.3c.1,.5,0,1.2-.2,1.9-.3,.7-1,1.5-2,2-1.2,.6-2.3,.7-3.4,.3-1-.4-1.8-1.2-2.4-2.3-.6-1.1-.7-2.3-.4-3.3s1.1-1.9,2.2-2.5c1-.5,2-.6,2.8-.4,.7,.2,1.3,.5,1.6,.9l-.6,.3c-.8-.8-2.1-.9-3.5-.3-.9,.5-1.5,1.2-1.8,2.1-.3,.9-.2,1.9,.3,2.9s1.2,1.7,2.1,2Z"/>
      <path class="uuid-d1358b96-96d3-45b8-9f18-6ad2e8aa4043" d="M64.1,4.9l1.6,6.7h-.6l-2-8h.6l5.4,6.4,1.4-8.2h.6l2,8h-.6l-1.6-6.5-1.3,7.4h-.5l-4.9-5.8Z"/>
      <path class="uuid-d1358b96-96d3-45b8-9f18-6ad2e8aa4043" d="M77.7,5l.4,3.5,4.6-.5v.6l-5.2,.5-.9-8.4,5.2-.5V.8l-4.5,.5,.3,3.2,4-.4v.6l-4,.4Z"/>
      <path class="uuid-d1358b96-96d3-45b8-9f18-6ad2e8aa4043" d="M90,0c1.2,0,2.2,.4,2.9,1.2s1.1,1.8,1.1,3.1c0,1.2-.4,2.2-1.2,3-.8,.8-1.8,1.2-3,1.1h-3l.2-8.5h3Zm-.2,7.9c1,0,1.9-.3,2.5-1,.6-.7,1-1.5,1-2.6,0-1-.3-1.9-.9-2.6-.6-.7-1.4-1.1-2.4-1.1h-2.4V7.8h2.2Z"/>
      <path class="uuid-d1358b96-96d3-45b8-9f18-6ad2e8aa4043" d="M99.9,.8l-1,8.3h-.6l1-8.4h.6Z"/>
      <path class="uuid-d1358b96-96d3-45b8-9f18-6ad2e8aa4043" d="M105.1,8.6c.5,.8,1.3,1.3,2.3,1.6,1.6,.4,2.8-.2,3.4-1.2l.7,.2c-.2,.5-.7,1-1.4,1.3-.7,.4-1.7,.5-2.8,.3-1.3-.3-2.3-.9-2.8-1.9-.5-1-.7-2.1-.4-3.3,.3-1.2,.9-2.2,1.8-2.8,.9-.6,2-.8,3.3-.5,1.1,.2,1.9,.8,2.4,1.4,.5,.6,.7,1.2,.7,1.7l-.7-.2c-.1-1.1-1-2.1-2.5-2.4-1-.2-1.9,0-2.7,.4-.8,.5-1.3,1.3-1.6,2.4-.3,1.1-.1,2,.3,2.9Z"/>
      <path class="uuid-d1358b96-96d3-45b8-9f18-6ad2e8aa4043" d="M118.3,5.1l-2.8,7.9-.6-.2,2.8-7.9,.6,.2Z"/>
      <path class="uuid-d1358b96-96d3-45b8-9f18-6ad2e8aa4043" d="M128.9,9.6l.6,.3-3.6,7.6-.5-.2-1.8-8.9-3.1,6.6-.6-.3,3.6-7.6,.5,.2,1.8,8.9,3.1-6.6Z"/>
      <path class="uuid-d1358b96-96d3-45b8-9f18-6ad2e8aa4043" d="M132.6,16.6l-1.9,2.9,3.9,2.5-.3,.5-4.4-2.8,4.5-7.1,4.4,2.8-.3,.5-3.9-2.5-1.7,2.7,3.4,2.2-.3,.5-3.4-2.2Z"/>
      <path class="uuid-d1358b96-96d3-45b8-9f18-6ad2e8aa4043" d="M144.2,28.4c0,.9,.4,1.8,1.2,2.6,1.2,1.1,2.5,1.2,3.5,.7l.5,.5c-.4,.3-1.1,.5-1.9,.4-.8,0-1.7-.4-2.5-1.2-1-.9-1.5-2-1.4-3.1,0-1.1,.5-2.1,1.4-3,.9-.9,1.9-1.4,3-1.5,1.1,0,2.1,.4,3.1,1.2,.8,.8,1.2,1.7,1.3,2.5,0,.8,0,1.4-.3,1.8l-.5-.5c.4-1,.2-2.3-.9-3.4-.8-.7-1.6-1.1-2.6-1-1,0-1.8,.5-2.6,1.3-.8,.8-1.2,1.7-1.2,2.6Z"/>
      <path class="uuid-d1358b96-96d3-45b8-9f18-6ad2e8aa4043" d="M154,34.9l-2.7,2.2,2.9,3.6-.4,.4-3.3-4.1,6.5-5.3,3.3,4.1-.4,.4-2.9-3.6-2.5,2,2.6,3.2-.4,.4-2.6-3.2Z"/>
      <path class="uuid-d1358b96-96d3-45b8-9f18-6ad2e8aa4043" d="M166.4,45.1l.3,.5-7.1,4.4-.3-.5,3.4-8.5-6.2,3.8-.3-.5,7.1-4.4,.3,.5-3.4,8.5,6.2-3.9Z"/>
      <path class="uuid-d1358b96-96d3-45b8-9f18-6ad2e8aa4043" d="M162.6,56.1l7.1-3.2-1.2-2.7,.5-.2,2.7,5.9-.5,.2-1.2-2.7-7.1,3.2-.3-.6Z"/>
      <path class="uuid-d1358b96-96d3-45b8-9f18-6ad2e8aa4043" d="M169.5,62.5l-3.3,1,1.4,4.4-.5,.2-1.6-5,8-2.5,1.6,5-.5,.2-1.4-4.4-3,1,1.2,3.9-.5,.2-1.2-3.9Z"/>
      <path class="uuid-d1358b96-96d3-45b8-9f18-6ad2e8aa4043" d="M172.5,75.4l-3.3,2.5v-.7l3.1-2.4-.5-2.8-3.5,.7v-.6l8.1-1.5,.6,3.1c.1,.8,0,1.4-.3,2-.3,.6-.8,.9-1.5,1-.5,0-1,0-1.4-.1-.5-.2-.8-.5-1-.9l-.2-.2Zm.3-1c0,.5,.4,1,.8,1.3,.4,.3,.9,.4,1.5,.3,1-.2,1.6-1.1,1.4-2.3l-.5-2.5-3.6,.7,.5,2.5Z"/>
      <path class="uuid-d1358b96-96d3-45b8-9f18-6ad2e8aa4043" d="M72.9,43.5c0,0-.1-.1-.2-.1H40.2c-.1,0-.2,0-.2,.2v1.9c0,.2,0,.2,.2,.2,1.1,0,2.1,.1,3.1,.3,5.7,1,9.5,4.8,11.9,9.9,12.6,26.7,25.2,53.3,37.8,79.9,0,.1,.2,.2,.3,.2h1.7c.2,0,.4-.1,.5-.3l9.5-23.7c0-.2,0-.4,0-.5L72.9,43.5Z"/>
      <path class="uuid-d1358b96-96d3-45b8-9f18-6ad2e8aa4043" d="M146.9,111.9l-31.8-67.8c0-.1-.2-.2-.4-.2h-32.3c0-.1,0-.1,0-.1,0,0,0,0,0,0,0,0,0,0,0,.1v1.9c0,0,0,.2,.2,.2,.7,0,1.3,.1,2,.2,6.3,.7,10.4,4.6,13,10.2,12.5,26.6,24.9,53.2,37.3,79.7,0,.2,.2,.3,.4,.3,.5,0,1.1,0,1.7,0,.2,0,.4-.2,.5-.3l9.5-23.5c0-.2,0-.5,0-.7Z"/>
      <path class="uuid-d1358b96-96d3-45b8-9f18-6ad2e8aa4043" d="M74.5,132.6s0,0-.1,0h0c-6.9,0-11.4-5.1-13.8-11-1-2.5-1.8-5.1-2.4-7.9-.7-3.8-1.2-7.7-1.3-11.7,0,0,0-.1-.1-.1h-2c0,0-.1,0-.1,0-.1,4.8-.8,9.4-2,13.9-1.6,5.7-4.6,12-10,14.9-2.3,1.2-4.7,1.8-7.3,1.8h0c0,0-.1,0-.1,.1v2.1h0s0,0,0,0h0s0,0,.1,0c.5,0,1,0,1.6,0,12.5,0,25.1,0,37.6,0,0,0,.1,0,.1-.1v-1.9h0s0,0,0,0c0,0,0-.2-.2-.2Z"/>
      <circle class="uuid-d1358b96-96d3-45b8-9f18-6ad2e8aa4043" cx="3.6" cy="89.9" r="3.5"/>
      <circle class="uuid-d1358b96-96d3-45b8-9f18-6ad2e8aa4043" cx="173.4" cy="89.9" r="3.5"/>
    </g>
  </g>
</svg>