<?xml version="1.0" encoding="UTF-8"?>
<svg id="uuid-5cbdfacf-fd57-4158-b04c-3843a38d312e" data-name="Layer 2" xmlns="http://www.w3.org/2000/svg" width="136.7" height="102.6" viewBox="0 0 136.7 102.6">
  <defs>
    <style>
      .uuid-e43d5def-7928-49b6-8be7-ec20ee5c3311 {
        fill: #4d4d4d;
      }
    </style>
  </defs>
  <g id="uuid-dad2076a-f81d-4a8d-96f4-8033ebbc25ef" data-name="Capa 1">
    <g>
      <path class="uuid-e43d5def-7928-49b6-8be7-ec20ee5c3311" d="M45.6,89.2c0,1.1-.8,1.9-2,1.9-2.5,0-5,0-7.5,0-1.2,0-2-.8-2-1.9,0-1.1,.7-1.9,1.9-1.9,1.2,0,2.5,0,3.7,0,1.2,0,2.5,0,3.7,0,1.2,0,2,.8,2,1.9Z"/>
      <path class="uuid-e43d5def-7928-49b6-8be7-ec20ee5c3311" d="M56.9,52.7c0-3.9-3-7-6.9-7.1-3,0-6.1,0-9.1,0-3.7,.1-6.7,3.2-6.8,6.9,0,1.5,0,3,0,4.6h0c0,1.4,0,2.8,0,4.1,0,4,3.1,7.1,7.2,7.1,2.9,0,5.7,0,8.6,0,3.9,0,7-3.2,7.1-7.1,0-2.9,0-5.7,0-8.6Zm-7.7,9.2c.6,0,1.2,0,1.9,0h1.9c-.6,1.7-1.6,2.6-3.2,2.6-2.8,0-5.6,0-8.4,0-1.6,0-2.7-.9-3.3-2.6,1.3,0,2.5,0,3.6,0,1.4,0,2.3-.7,2.3-1.9,0-1.2-.8-2-2.3-2-.8,0-1.6,0-2.4,0-.6,0-1.4,.4-1.4-.8,0-1.1,.8-.7,1.3-.8,.9,0,1.9,0,2.8,0,1.2,0,2-.9,2-1.9,0-1.1-.8-1.9-2-1.9-1.1,0-2.1,0-3.2,0-.8,0-.8-.4-.6-.9,.5-1.2,1.4-2,2.7-2.1,3.1-.2,6.2-.2,9.2,0,.6,0,1.2,.3,1.7,.7,.6,.5,1.3,1.2,1,2-.2,.6-1.1,.2-1.7,.2-.8,0-1.5,0-2.3,0-1.2,0-1.8,.8-1.8,1.9,0,1.1,.7,1.8,1.8,1.9,1,0,2,0,2.9,0,.6,0,1.3-.2,1.2,.8,0,1-.7,.8-1.2,.8-.9,0-1.8,0-2.7,0-1.3,0-2.2,.8-2.2,1.9,0,1.1,.8,2,2.2,2Z"/>
      <path class="uuid-e43d5def-7928-49b6-8be7-ec20ee5c3311" d="M35.1,83.6c-.5,0-1,0-1.5-.1-.9-.3-1.4-.9-1.4-1.9,0-1,.6-1.6,1.5-1.8,.4,0,.9,0,1.3,0,13.9,0,27.8,0,41.7,0s.7,0,1.1,0c1.1,.1,1.8,.7,1.8,1.9,0,1.2-.8,1.8-1.9,1.9-.7,0-1.4,0-2.1,0h-19.8c-6.9,0-13.9,0-20.8,0Z"/>
      <path class="uuid-e43d5def-7928-49b6-8be7-ec20ee5c3311" d="M123.1,54.2c-1.6-8.9-11.3-13.3-19-8.5-.6,.4-.9,.3-1.5,0-3-1.9-6.4-2.5-9.9-1.5-6.6,1.9-10.6,8.8-9,15.8,2.1,9.3,12,13,19,8.2,.6-.4,.9-.2,1.4,.1,2,1.3,4.2,2,6.8,2,.9,0,2-.2,3.2-.5,6.4-1.9,10.2-8.6,8.9-15.6Zm-23.4,11.2c-3.1,1.4-6,1.2-8.8-1-.7-.4-1.2-.9-1.6-1.6-2.7-3.3-2.7-8.2,0-11.6,2.5-3.2,6.6-4.2,10.2-2.6,.8,.4,1.1,.6,.5,1.6-2.6,4.6-2.6,9.4,0,14,.4,.8,.3,1-.4,1.3Zm11,.8c-4.8,0-8.7-4.2-8.7-9.2,0-5,4.1-9.3,8.8-9.2,4.7,0,8.7,4.2,8.7,9.3,0,5.1-4,9.2-8.8,9.2Z"/>
      <path class="uuid-e43d5def-7928-49b6-8be7-ec20ee5c3311" d="M125.3,89.3c0,1-.6,1.6-1.6,1.9-.3,0-.6,0-.9,0-22.3,0-44.7,0-67,0-.4,0-.7,0-1.1,0-1-.2-1.6-.9-1.6-2,0-1,.7-1.6,1.7-1.7,.4,0,.7,0,1.1,0,11.1,0,22.2,0,33.4,0s22.1,0,33.1,0c.4,0,.8,0,1.2,0,1.1,.1,1.7,.8,1.7,1.9Z"/>
      <path class="uuid-e43d5def-7928-49b6-8be7-ec20ee5c3311" d="M136.7,38.2c0-4.2-2.6-6.8-6.9-6.8-3.8,0-7.7,0-11.5,0-.9,0-1.4-.2-1.6-1.2-.5-2.4-1.2-4.7-1.8-7-1.5-6.1-3.1-12.2-4.6-18.3-.8-3.2-3.9-5.5-6.9-4.9-5.5,1.2-10.9,2.7-16.3,4.1-1.2,.3-1.7,1.3-1.4,2.5,.3,1.1,1.4,1.6,2.8,1.2,4.9-1.2,9.8-2.5,14.8-3.8,1.2-.3,2.2,0,2.8,1,.6,1,.6,2.1,1,3.2,.2,.6-.3,.5-.7,.6-2.8,.7-5.5,1.4-8.3,2.1-30.3,7.7-60.7,15.5-91,23.3-2.3,.6-2.3,.6-2.9-1.7-.5-2.1,0-3.1,2.1-3.6,23.1-5.9,46.2-11.8,69.3-17.7,1.5-.4,2.3-1.3,2-2.5-.3-1.3-1.4-1.8-3-1.4C51.4,13.3,28.3,19.2,5.2,25.1,1.1,26.1-.8,29.3,.3,33.4c.7,2.6,1.3,5.3,2,7.9,4.1,16,8.2,32,12.2,48,.5,1.9,1.6,3.4,3.3,4.3,1.7,.9,3.4,.8,5.3,.2,0,.7,0,1.3,0,1.9,0,4.3,2.5,6.8,6.8,6.8,33.3,0,66.7,0,100,0,4.1,0,6.7-2.6,6.7-6.7,0-19.2,0-38.4,0-57.6ZM23.2,88.1c0,2,0,2-2,2.3-1.3,.2-2.4-.5-2.7-1.8-.6-2.1-1.1-4.2-1.6-6.3-2.3-9-4.5-18-6.9-26.9-.3-1.1-.1-1.4,1-1.7,4.1-1,8.1-2,12.3-3.1v37.6Zm0-49.6c0,2.3,0,4.6,0,6.8,0,.8-.2,1.2-1,1.4-4.2,1-8.3,2.1-12.4,3.2-.8,.2-1.2,.2-1.4-.8-.7-3.2-1.5-6.3-2.4-9.4-.2-.7,0-.9,.6-1.1,5.7-1.4,11.4-2.9,17.1-4.4,.2,0,.3,0,.7,0-1,1.5-1.2,2.9-1.2,4.4Zm88.9-10.2c.2,.9,.4,1.7,.6,2.6,.1,.5-.1,.6-.5,.6-4.5,0-9,0-13.5,0,0,0,0-.2,0-.2,4.2-1.1,8.4-2.2,12.6-3.2,.3,0,.7-.2,.8,.3Zm-65.5,0c19.1-4.9,38.2-9.7,57.3-14.6,1.1-.3,2.2-.5,3.2-.9,.6-.2,.9-.2,1.1,.6,.8,3.2,1.6,6.5,2.5,9.7,.2,.7,0,1-.7,1.2-9.3,2.3-18.5,4.7-27.8,7.1-.5,.1-1,.1-1.5,.1-14.9,0-29.7,0-44.6,0s-.8,0-1.2,0c0,0,0-.1,0-.2,3.9-1,7.8-2,11.7-3Zm86.1,67.2c0,2.4-.8,3.2-3.2,3.2-33.1,0-66.2,0-99.3,0-2.4,0-3.1-.7-3.1-3.1,0-19,0-38.1,0-57.1s.8-3,3-3c16.6,0,33.2,0,49.8,0h49.4c2.6,0,3.3,.8,3.3,3.4,0,18.9,0,37.8,0,56.7Z"/>
      <path class="uuid-e43d5def-7928-49b6-8be7-ec20ee5c3311" d="M45.6,89.2c0,1.1-.8,1.9-2,1.9-2.5,0-5,0-7.5,0-1.2,0-2-.8-2-1.9,0-1.1,.7-1.9,1.9-1.9,1.2,0,2.5,0,3.7,0,1.2,0,2.5,0,3.7,0,1.2,0,2,.8,2,1.9Z"/>
      <path class="uuid-e43d5def-7928-49b6-8be7-ec20ee5c3311" d="M56.9,52.7c0-3.9-3-7-6.9-7.1-3,0-6.1,0-9.1,0-3.7,.1-6.7,3.2-6.8,6.9,0,1.5,0,3,0,4.6h0c0,1.4,0,2.8,0,4.1,0,4,3.1,7.1,7.2,7.1,2.9,0,5.7,0,8.6,0,3.9,0,7-3.2,7.1-7.1,0-2.9,0-5.7,0-8.6Zm-7.7,9.2c.6,0,1.2,0,1.9,0h1.9c-.6,1.7-1.6,2.6-3.2,2.6-2.8,0-5.6,0-8.4,0-1.6,0-2.7-.9-3.3-2.6,1.3,0,2.5,0,3.6,0,1.4,0,2.3-.7,2.3-1.9,0-1.2-.8-2-2.3-2-.8,0-1.6,0-2.4,0-.6,0-1.4,.4-1.4-.8,0-1.1,.8-.7,1.3-.8,.9,0,1.9,0,2.8,0,1.2,0,2-.9,2-1.9,0-1.1-.8-1.9-2-1.9-1.1,0-2.1,0-3.2,0-.8,0-.8-.4-.6-.9,.5-1.2,1.4-2,2.7-2.1,3.1-.2,6.2-.2,9.2,0,.6,0,1.2,.3,1.7,.7,.6,.5,1.3,1.2,1,2-.2,.6-1.1,.2-1.7,.2-.8,0-1.5,0-2.3,0-1.2,0-1.8,.8-1.8,1.9,0,1.1,.7,1.8,1.8,1.9,1,0,2,0,2.9,0,.6,0,1.3-.2,1.2,.8,0,1-.7,.8-1.2,.8-.9,0-1.8,0-2.7,0-1.3,0-2.2,.8-2.2,1.9,0,1.1,.8,2,2.2,2Z"/>
      <path class="uuid-e43d5def-7928-49b6-8be7-ec20ee5c3311" d="M35.1,83.6c-.5,0-1,0-1.5-.1-.9-.3-1.4-.9-1.4-1.9,0-1,.6-1.6,1.5-1.8,.4,0,.9,0,1.3,0,13.9,0,27.8,0,41.7,0s.7,0,1.1,0c1.1,.1,1.8,.7,1.8,1.9,0,1.2-.8,1.8-1.9,1.9-.7,0-1.4,0-2.1,0h-19.8c-6.9,0-13.9,0-20.8,0Z"/>
      <path class="uuid-e43d5def-7928-49b6-8be7-ec20ee5c3311" d="M123.1,54.2c-1.6-8.9-11.3-13.3-19-8.5-.6,.4-.9,.3-1.5,0-3-1.9-6.4-2.5-9.9-1.5-6.6,1.9-10.6,8.8-9,15.8,2.1,9.3,12,13,19,8.2,.6-.4,.9-.2,1.4,.1,2,1.3,4.2,2,6.8,2,.9,0,2-.2,3.2-.5,6.4-1.9,10.2-8.6,8.9-15.6Zm-23.4,11.2c-3.1,1.4-6,1.2-8.8-1-.7-.4-1.2-.9-1.6-1.6-2.7-3.3-2.7-8.2,0-11.6,2.5-3.2,6.6-4.2,10.2-2.6,.8,.4,1.1,.6,.5,1.6-2.6,4.6-2.6,9.4,0,14,.4,.8,.3,1-.4,1.3Zm11,.8c-4.8,0-8.7-4.2-8.7-9.2,0-5,4.1-9.3,8.8-9.2,4.7,0,8.7,4.2,8.7,9.3,0,5.1-4,9.2-8.8,9.2Z"/>
      <path class="uuid-e43d5def-7928-49b6-8be7-ec20ee5c3311" d="M125.3,89.3c0,1-.6,1.6-1.6,1.9-.3,0-.6,0-.9,0-22.3,0-44.7,0-67,0-.4,0-.7,0-1.1,0-1-.2-1.6-.9-1.6-2,0-1,.7-1.6,1.7-1.7,.4,0,.7,0,1.1,0,11.1,0,22.2,0,33.4,0s22.1,0,33.1,0c.4,0,.8,0,1.2,0,1.1,.1,1.7,.8,1.7,1.9Z"/>
      <path class="uuid-e43d5def-7928-49b6-8be7-ec20ee5c3311" d="M76.7,8.8c-.1-.1-.2-.2-.3-.3,0-.2,0-.3,.3-.3,0,0,.2,.2,.2,.3,0,0-.1,.2-.2,.3Z"/>
      <path class="uuid-e43d5def-7928-49b6-8be7-ec20ee5c3311" d="M123.1,54.2c-1.6-8.9-11.3-13.3-19-8.5-.6,.4-.9,.3-1.5,0-3-1.9-6.4-2.5-9.9-1.5-6.6,1.9-10.6,8.8-9,15.8,2.1,9.3,12,13,19,8.2,.6-.4,.9-.2,1.4,.1,2,1.3,4.2,2,6.8,2,.9,0,2-.2,3.2-.5,6.4-1.9,10.2-8.6,8.9-15.6Zm-23.4,11.2c-3.1,1.4-6,1.2-8.8-1-.7-.4-1.2-.9-1.6-1.6-2.7-3.3-2.7-8.2,0-11.6,2.5-3.2,6.6-4.2,10.2-2.6,.8,.4,1.1,.6,.5,1.6-2.6,4.6-2.6,9.4,0,14,.4,.8,.3,1-.4,1.3Zm11,.8c-4.8,0-8.7-4.2-8.7-9.2,0-5,4.1-9.3,8.8-9.2,4.7,0,8.7,4.2,8.7,9.3,0,5.1-4,9.2-8.8,9.2Z"/>
      <path class="uuid-e43d5def-7928-49b6-8be7-ec20ee5c3311" d="M56.9,52.7c0-3.9-3-7-6.9-7.1-3,0-6.1,0-9.1,0-3.7,.1-6.7,3.2-6.8,6.9,0,1.5,0,3,0,4.6h0c0,1.4,0,2.8,0,4.1,0,4,3.1,7.1,7.2,7.1,2.9,0,5.7,0,8.6,0,3.9,0,7-3.2,7.1-7.1,0-2.9,0-5.7,0-8.6Zm-7.7,9.2c.6,0,1.2,0,1.9,0h1.9c-.6,1.7-1.6,2.6-3.2,2.6-2.8,0-5.6,0-8.4,0-1.6,0-2.7-.9-3.3-2.6,1.3,0,2.5,0,3.6,0,1.4,0,2.3-.7,2.3-1.9,0-1.2-.8-2-2.3-2-.8,0-1.6,0-2.4,0-.6,0-1.4,.4-1.4-.8,0-1.1,.8-.7,1.3-.8,.9,0,1.9,0,2.8,0,1.2,0,2-.9,2-1.9,0-1.1-.8-1.9-2-1.9-1.1,0-2.1,0-3.2,0-.8,0-.8-.4-.6-.9,.5-1.2,1.4-2,2.7-2.1,3.1-.2,6.2-.2,9.2,0,.6,0,1.2,.3,1.7,.7,.6,.5,1.3,1.2,1,2-.2,.6-1.1,.2-1.7,.2-.8,0-1.5,0-2.3,0-1.2,0-1.8,.8-1.8,1.9,0,1.1,.7,1.8,1.8,1.9,1,0,2,0,2.9,0,.6,0,1.3-.2,1.2,.8,0,1-.7,.8-1.2,.8-.9,0-1.8,0-2.7,0-1.3,0-2.2,.8-2.2,1.9,0,1.1,.8,2,2.2,2Z"/>
      <path class="uuid-e43d5def-7928-49b6-8be7-ec20ee5c3311" d="M125.3,89.3c0,1-.6,1.6-1.6,1.9-.3,0-.6,0-.9,0-22.3,0-44.7,0-67,0-.4,0-.7,0-1.1,0-1-.2-1.6-.9-1.6-2,0-1,.7-1.6,1.7-1.7,.4,0,.7,0,1.1,0,11.1,0,22.2,0,33.4,0s22.1,0,33.1,0c.4,0,.8,0,1.2,0,1.1,.1,1.7,.8,1.7,1.9Z"/>
      <path class="uuid-e43d5def-7928-49b6-8be7-ec20ee5c3311" d="M79.7,81.7c0,1.2-.8,1.8-1.9,1.9-.7,0-1.4,0-2.1,0h-19.8c-6.9,0-13.9,0-20.8,0-.5,0-1,0-1.5-.1-.9-.3-1.4-.9-1.4-1.9,0-1,.6-1.6,1.5-1.8,.4,0,.9,0,1.3,0,13.9,0,27.8,0,41.7,0s.7,0,1.1,0c1.1,.1,1.8,.7,1.8,1.9Z"/>
      <path class="uuid-e43d5def-7928-49b6-8be7-ec20ee5c3311" d="M45.6,89.2c0,1.1-.8,1.9-2,1.9-2.5,0-5,0-7.5,0-1.2,0-2-.8-2-1.9,0-1.1,.7-1.9,1.9-1.9,1.2,0,2.5,0,3.7,0,1.2,0,2.5,0,3.7,0,1.2,0,2,.8,2,1.9Z"/>
    </g>
  </g>
</svg>