<?xml version="1.0" encoding="UTF-8"?>
<svg id="uuid-924091b7-beac-4fa3-ba50-c50ab026a290" data-name="Layer 2" xmlns="http://www.w3.org/2000/svg" width="190.5" height="190.6" viewBox="0 0 190.5 190.6">
  <defs>
    <style>
      .uuid-b3e2fbd0-391a-48ac-97e7-d9e8d999c3cf {
        fill: #b28378;
      }
    </style>
  </defs>
  <g id="uuid-6d038f05-7484-4b44-971e-0c9eab9ac595" data-name="Capa 1">
    <g>
      <path class="uuid-b3e2fbd0-391a-48ac-97e7-d9e8d999c3cf" d="M61.2,118.4v1.2h-22.2v-1.2c11,0,11-17.3,11-17.3h1.2s-.1,17.3,10,17.3m-1-50.3l18.3,38.5-5.5,13.7h-1.2l-21.8-45.9c-2.8-4.9-6.4-4.9-8.3-5.1v-1.2h18.5Zm49.2,50.3v1.2h-22.1v-1.2c3.1,0,5.3-2.6,5.3-7.6v-42.7h16.2v1.2c-3.2,0-5.6,2-5.6,6.4v35c0,5,3.2,7.6,6.3,7.6"/>
      <path class="uuid-b3e2fbd0-391a-48ac-97e7-d9e8d999c3cf" d="M134.4,104l-9.3-22.8,5-13.1h1.2c18,43.1,18.6,45,18.6,45,2.5,5.9,4.3,5.2,6.2,5.3v1.2h-21v-1.2c5.7,0,1.9-7.8,1.9-7.8l-2.2-5.4"/>
      <path class="uuid-b3e2fbd0-391a-48ac-97e7-d9e8d999c3cf" d="M121.8,14.5s0,0,0,0c0,0,0,0,0,0,0,0,0,0,0,0,0,0,0,0,0,0l6.9-6.2s0,0,.1,0h0l-3.3,10h-.1l3.1-9.6h0c0,0,0-.1,0-.1l-6.9,6.2s0,0-.1,0h0s0,0,0-.1l-2-9.1s0,0,0,0h0l-3.1,9.6h-.1l3.3-10h0s0,0,0,.1l2,9.1Z"/>
      <path class="uuid-b3e2fbd0-391a-48ac-97e7-d9e8d999c3cf" d="M142.6,27.5h-.1c0,0,0-.1,0-.2l.6-3.8-4.7-2.9-3.1,2.2s0,0-.1,0h-.1l9.3-6.6h.1l-1.9,11.3Zm-4.1-7l4.6,2.9,1.1-6.6c0,0,0-.1,0-.2,0,0,0-.1,0-.2,0,0,0,0-.1,.1,0,0,0,0-.1,0l-5.5,3.9Z"/>
      <path class="uuid-b3e2fbd0-391a-48ac-97e7-d9e8d999c3cf" d="M162.3,30.6h-.1l-2.9-2.6-7.1,7.5h-.1l7.1-7.6-2.9-2.7h.1l5.9,5.5Z"/>
      <path class="uuid-b3e2fbd0-391a-48ac-97e7-d9e8d999c3cf" d="M162,46.7h-.1l8.5-6.4h.1l-8.5,6.4Z"/>
      <path class="uuid-b3e2fbd0-391a-48ac-97e7-d9e8d999c3cf" d="M171.5,63.2h0c0-.2,0-.2,0-.2l2.5-2.8-2.4-5-3.8,.2c0,0,0,0-.1,0h0l11.4-.7h0l-7.6,8.6Zm.3-8.1l2.4,4.9,4.5-5s0,0,.1-.1h.1c0-.1-.1-.1-.2-.1,0,0-.1,0-.2,0l-6.7,.4Z"/>
      <path class="uuid-b3e2fbd0-391a-48ac-97e7-d9e8d999c3cf" d="M185.3,76s0,0,0,0c0,0,0-.1,.1-.2,0-.1,.2-.3,.2-.5,0-.2,.1-.4,.2-.7,0-.3,0-.6,0-1.1-.1-.4-.3-.8-.5-1.1-.2-.3-.4-.5-.7-.7-.3-.2-.6-.3-.9-.3-.3,0-.6,0-.9,0-.4,0-.7,.3-.9,.5-.2,.2-.4,.5-.5,.8-.1,.3-.2,.6-.2,1,0,.3,0,.7-.1,1.1,0,.4,0,.7-.1,1.1,0,.4-.1,.7-.3,1-.1,.3-.3,.5-.5,.8-.2,.2-.6,.4-1,.5-.4,.1-.8,.1-1.2,0-.4,0-.8-.2-1.1-.4-.3-.2-.6-.5-.9-.8-.2-.4-.4-.8-.6-1.3,0-.3-.1-.7-.1-.9s0-.6,0-.8c0-.3,.1-.5,.3-.7s.3-.5,.4-.7h0s0,0,0,0c0,0,0,0,0,0,0,0,0,0,0,.1,0,0-.1,.2-.2,.3,0,.1-.1,.3-.2,.4,0,.2-.1,.4-.2,.6,0,.2,0,.5,0,.7,0,.3,0,.6,.1,.9,.1,.5,.3,.9,.5,1.2,.2,.3,.5,.6,.8,.8,.3,.2,.7,.3,1,.4,.4,0,.8,0,1.1,0,.3,0,.6-.2,.8-.4,.2-.2,.4-.3,.5-.6s.2-.4,.3-.7c0-.3,.1-.5,.1-.8,0-.3,0-.6,0-.9,0-.3,0-.6,0-.9s0-.5,.2-.8,.2-.5,.3-.7c.1-.2,.3-.4,.5-.6,.2-.2,.5-.3,.8-.4,.3,0,.7,0,1,0,.3,0,.6,.2,.9,.3,.3,.2,.5,.4,.8,.7,.2,.3,.4,.7,.5,1.1,.1,.5,.1,1,0,1.4,0,.4-.2,.8-.5,1.3h0Z"/>
      <path class="uuid-b3e2fbd0-391a-48ac-97e7-d9e8d999c3cf" d="M176.8,109.2h0c0-.2,0-.2,0-.2l3.7-1,.7-5.5-3.3-1.9s0,0,0-.1h0l9.9,5.5h0l-10.9,3.3Zm4.6-6.7l-.6,5.4,6.5-1.8c0,0,.1,0,.2,0,0,0,.1,0,.2,0,0,0-.1,0-.1,0,0,0,0,0-.1,0l-5.9-3.3Z"/>
      <path class="uuid-b3e2fbd0-391a-48ac-97e7-d9e8d999c3cf" d="M174.7,125.2s0,0,0,0,0,0,0,0c0,0,0,0,0,0,0,0,0,0,0,0l5.9,7.2s0,0,0,.1h0l-9.8-3.7h0l9.4,3.4h0s0,0,0,0l-5.9-7.1c0,0,0,0,0-.1h0c0,0,0,0,.1-.1l9.2-1.6s0,0,0,0h0l-9.4-3.6h0l9.8,3.6h0c0,0,0,.1,0,.1l-9.2,1.6Z"/>
      <path class="uuid-b3e2fbd0-391a-48ac-97e7-d9e8d999c3cf" d="M160.9,145.4h0c0-.1,0-.2,.1-.1l3.7,.8,3.1-4.6-2.1-3.2s0,0,0-.1h0l6.2,9.5h0l-11.1-2.2Zm7.1-3.8l-3.1,4.5,6.6,1.4c0,0,.1,0,.2,0h.2s0,0,0,0c0,0,0,0,0-.1l-3.6-5.7Z"/>
      <path class="uuid-b3e2fbd0-391a-48ac-97e7-d9e8d999c3cf" d="M150.9,163.2c-.6-.6-1-1.2-1.2-1.9-.3-.6-.4-1.3-.4-1.9,0-.6,.2-1.2,.4-1.8,.3-.6,.7-1.1,1.2-1.6l2.8-2.5,7.1,7.8-2.8,2.5c-.5,.5-1.1,.8-1.7,1.1-.6,.2-1.2,.3-1.8,.3-.6,0-1.2-.2-1.8-.5s-1.2-.8-1.8-1.4Zm.1-.1c.5,.6,1.1,1.1,1.7,1.4,.6,.3,1.2,.5,1.8,.5s1.2,0,1.8-.3c.6-.2,1.1-.6,1.6-1l2.6-2.4-6.9-7.5-2.6,2.4c-.5,.5-.9,1-1.2,1.5-.3,.6-.4,1.1-.4,1.7,0,.6,.1,1.2,.4,1.8,.3,.6,.7,1.2,1.2,1.8Z"/>
      <path class="uuid-b3e2fbd0-391a-48ac-97e7-d9e8d999c3cf" d="M132.8,174.7c-.4-.7-.6-1.4-.8-2.1-.1-.7,0-1.3,0-2,.2-.6,.4-1.2,.8-1.7,.4-.5,.9-.9,1.6-1.3,.6-.3,1.3-.5,1.9-.6,.6,0,1.3,0,1.9,.2s1.2,.5,1.7,1c.5,.5,1,1.1,1.4,1.8,.4,.7,.6,1.4,.8,2.1s0,1.3,0,2c-.2,.6-.4,1.2-.8,1.7s-.9,.9-1.5,1.3c-.6,.3-1.3,.5-1.9,.6-.6,0-1.3,0-1.9-.2-.6-.2-1.2-.5-1.7-1-.5-.5-1-1.1-1.4-1.8Zm.2,0c.4,.7,.8,1.3,1.3,1.8s1.1,.8,1.6,1c.6,.2,1.2,.3,1.8,.2s1.2-.3,1.8-.6c.6-.3,1.1-.7,1.5-1.2,.4-.5,.7-1,.8-1.6,.1-.6,.2-1.2,0-1.9-.1-.7-.4-1.4-.7-2.1-.4-.7-.8-1.3-1.4-1.8s-1.1-.8-1.6-1c-.6-.2-1.2-.3-1.8-.2s-1.2,.3-1.8,.6c-.6,.3-1.1,.7-1.5,1.2-.4,.5-.7,1-.8,1.6-.1,.6-.2,1.2,0,1.9,.1,.7,.4,1.4,.7,2.1Z"/>
      <path class="uuid-b3e2fbd0-391a-48ac-97e7-d9e8d999c3cf" d="M86.8,178.8s0,0,0,0h0c.2-.3,.5-.5,.7-.6,.3-.2,.5-.3,.8-.4s.6-.2,1-.3c.4,0,.8,0,1.2,0,.7,0,1.3,.2,1.9,.5,.6,.3,1.1,.7,1.5,1.1,.4,.5,.7,1.1,.9,1.7,.2,.7,.3,1.4,.3,2.3,0,.8-.2,1.5-.5,2.2-.3,.6-.6,1.2-1.1,1.6-.5,.5-1,.8-1.6,1-.6,.2-1.3,.3-2.1,.3-.4,0-.7,0-1-.1-.3,0-.6-.2-.8-.3-.3-.1-.5-.3-.7-.4-.2-.2-.5-.4-.7-.6h0c0,0,0,0,0,0,0,0,0,0,.2,0,0,0,.2,.1,.3,.2,.1,0,.2,.2,.4,.3,.2,.1,.4,.2,.6,.3,.2,0,.5,.2,.8,.3,.3,0,.6,.1,1,.1,.7,0,1.4,0,2-.3,.6-.2,1.1-.5,1.6-1,.4-.4,.8-1,1.1-1.6,.3-.6,.4-1.3,.5-2.1,0-.8,0-1.5-.3-2.2-.2-.7-.5-1.2-.9-1.7s-.9-.8-1.4-1.1c-.6-.3-1.2-.4-1.8-.4-.4,0-.8,0-1.1,0-.3,0-.6,.1-.9,.2-.3,.1-.5,.2-.8,.4-.2,.2-.5,.3-.7,.5,0,0,0,0,0,0Z"/>
      <path class="uuid-b3e2fbd0-391a-48ac-97e7-d9e8d999c3cf" d="M75.7,175.4h.2l-2.4,10.3h-.2l2.4-10.3Z"/>
      <path class="uuid-b3e2fbd0-391a-48ac-97e7-d9e8d999c3cf" d="M61.9,176.2l2.1-4.6h.2l-4.3,9.7-2.2-1c-1-.4-1.7-1-2-1.6-.4-.6-.4-1.4,0-2.2,.2-.4,.4-.7,.7-1s.6-.4,1-.5c.4,0,.8-.1,1.2,0,.4,0,.9,.2,1.4,.4,0,0,0,0,0-.1,0,0,0,0,0-.2l-1.8-6.1h.1c0,0,0,0,0,0,0,0,0,0,0,.1l1.7,5.9c0,0,0,.1,0,.2,0,0,0,0,0,.1,0,0,0,0,.2,.1,0,0,.1,0,.2,.1l1.5,.7Zm0,.1l-1.9-.9c-.5-.2-.9-.3-1.3-.4-.4,0-.8,0-1.2,0s-.7,.3-1,.5c-.3,.2-.5,.5-.7,.9-.3,.8-.3,1.5,0,2.1,.3,.6,1,1.1,1.9,1.5l2.1,.9,2.1-4.7Z"/>
      <path class="uuid-b3e2fbd0-391a-48ac-97e7-d9e8d999c3cf" d="M46.1,161.4c-.5-.3-.9-.6-1.4-.7-.5-.1-.9-.1-1.4,0-.5,0-.9,.3-1.3,.6-.4,.3-.8,.6-1.1,1.1l-3.9,5.3h-.1l3.9-5.4c.3-.4,.7-.8,1.1-1.1,.4-.3,.9-.5,1.4-.6,.5,0,1,0,1.5,0,.5,.1,1,.3,1.5,.7,.5,.3,.8,.7,1.1,1.2s.4,.9,.4,1.4c0,.5,0,1-.2,1.5-.2,.5-.4,1-.7,1.4l-3.9,5.3h-.1l3.9-5.4c.3-.4,.6-.9,.7-1.4,.1-.5,.2-1,.2-1.4,0-.5-.2-.9-.4-1.3-.2-.4-.6-.8-1-1.1Z"/>
      <path class="uuid-b3e2fbd0-391a-48ac-97e7-d9e8d999c3cf" d="M31.7,147.8c-.3-.3-.5-.6-.8-.8-.3-.2-.5-.4-.8-.6-.3-.2-.5-.3-.8-.4-.3-.1-.6-.2-.9-.3l-2.5,2.1,1.5,1.8s0,0,0,.1h0l-1.7-2,2.7-2.2c.3,0,.6,.2,.9,.3,.3,.1,.6,.3,.9,.5,.3,.2,.6,.4,.8,.6s.6,.5,.9,.9c.5,.6,.8,1.2,1,1.8,.2,.6,.3,1.3,.2,1.9,0,.6-.3,1.3-.6,1.9-.4,.6-.8,1.2-1.5,1.7-.6,.5-1.3,.9-1.9,1.2-.7,.2-1.3,.3-2,.3-.6,0-1.3-.2-1.9-.6-.6-.3-1.2-.8-1.7-1.4-.3-.3-.5-.6-.6-.9-.2-.3-.3-.6-.4-.8-.1-.3-.2-.6-.2-.8s0-.6,0-.9h0s0,0,0,0c0,0,0,.1,0,.3s0,.4,0,.7c0,.3,.2,.6,.4,1,.2,.4,.5,.8,.8,1.3,.5,.6,1,1,1.6,1.4,.6,.3,1.2,.5,1.8,.5,.6,0,1.3,0,1.9-.3,.6-.2,1.3-.6,1.9-1.1s1.1-1.1,1.5-1.7c.3-.6,.6-1.2,.6-1.8,0-.6,0-1.2-.2-1.8-.2-.6-.5-1.2-1-1.7Z"/>
      <path class="uuid-b3e2fbd0-391a-48ac-97e7-d9e8d999c3cf" d="M22.9,134.8v.2l-9.1,5.1v-.2l9.1-5.1Z"/>
      <path class="uuid-b3e2fbd0-391a-48ac-97e7-d9e8d999c3cf" d="M15.7,117.2h0c0,.2,0,.2,0,.2l-2.9,2.5,1.7,5.3,3.8,.3c0,0,0,0,.1,0h0l-11.3-.7h0l8.6-7.6Zm-1.3,8l-1.7-5.1-5.1,4.4s0,0-.1,.1c0,0,0,0-.1,.1,0,0,.1,0,.2,0,0,0,.1,0,.2,0l6.7,.5Z"/>
      <path class="uuid-b3e2fbd0-391a-48ac-97e7-d9e8d999c3cf" d="M8.3,93.6l4.5,.2v.2l-10.5-.4v-2.4c.1-1.1,.4-2,.9-2.6,.5-.6,1.3-.9,2.3-.8,.4,0,.8,.1,1.2,.3,.4,.2,.7,.4,.9,.8,.3,.3,.4,.7,.6,1.1,.1,.4,.2,.9,.2,1.4v2.2Zm-.2,0v-2.2c.1-.5,0-1,0-1.4-.1-.4-.3-.8-.6-1.1-.2-.3-.5-.5-.9-.7-.3-.2-.7-.3-1.1-.3-.9,0-1.7,.2-2.2,.8-.5,.5-.8,1.4-.8,2.5v2.2l5.6,.2Z"/>
      <path class="uuid-b3e2fbd0-391a-48ac-97e7-d9e8d999c3cf" d="M14.6,77.2l1.3-5.2h.2l-1.3,5.4-10.2-2.5v-.2l10.1,2.5Z"/>
      <path class="uuid-b3e2fbd0-391a-48ac-97e7-d9e8d999c3cf" d="M22.8,55.7h0c0,.2,0,.2-.1,.2l-3.8-.2-2.4,5,2.5,2.8s0,0,0,.1h0l-7.6-8.4h0l11.4,.5Zm-6.5,4.8l2.3-4.9-6.7-.4c0,0-.1,0-.2,0,0,0-.1,0-.2,0,0,0,0,0,.1,.1,0,0,0,0,.1,.1l4.5,5Z"/>
      <path class="uuid-b3e2fbd0-391a-48ac-97e7-d9e8d999c3cf" d="M24,36.9s0,0,0,0c0,0-.1,0-.2,0-.1,0-.3,0-.5,.1s-.4,.2-.7,.3-.5,.4-.8,.7c-.3,.3-.4,.7-.5,1,0,.3-.1,.7,0,1s.1,.6,.3,.9c.2,.3,.4,.5,.6,.7,.3,.2,.6,.4,.9,.4,.3,0,.6,0,.9,0,.3,0,.6-.2,.9-.4,.3-.2,.6-.4,.9-.6s.6-.4,.9-.6c.3-.2,.6-.3,.9-.4,.3,0,.6-.1,.9,0,.3,0,.6,.2,1,.5,.3,.3,.6,.6,.8,.9,.2,.3,.3,.7,.4,1.1,0,.4,0,.8,0,1.2-.1,.4-.3,.8-.6,1.2-.2,.3-.4,.5-.7,.7s-.4,.3-.7,.4c-.2,.1-.5,.2-.7,.2-.3,0-.5,0-.8,0h0c0,0,0,0,0,0,0,0,0,0,0,0,0,0,0,0,.2,0,0,0,.2,0,.3,0,.1,0,.3,0,.5,0,.2,0,.4-.1,.6-.2,.2,0,.4-.2,.6-.4,.2-.2,.4-.4,.6-.6,.3-.4,.5-.8,.6-1.2s.1-.8,0-1.1-.2-.7-.4-1c-.2-.3-.4-.6-.8-.8-.3-.2-.5-.3-.8-.4-.3,0-.5,0-.7,0-.2,0-.5,.1-.7,.2s-.5,.2-.7,.4c-.2,.2-.5,.3-.7,.5-.2,.2-.5,.3-.7,.5-.2,.1-.5,.3-.7,.4-.2,.1-.5,.2-.7,.2-.3,0-.5,0-.8,0-.3,0-.5-.2-.8-.4-.3-.2-.5-.5-.6-.7-.2-.3-.3-.6-.3-.9,0-.3,0-.7,0-1,.1-.4,.3-.7,.6-1.1,.3-.4,.7-.7,1-.9,.4-.2,.8-.3,1.3-.4h0Z"/>
      <path class="uuid-b3e2fbd0-391a-48ac-97e7-d9e8d999c3cf" d="M37.8,22.1h.1l-3,2.7,6.7,7.8h-.1l-6.7-7.7-3,2.6h-.1l6.1-5.4Z"/>
      <path class="uuid-b3e2fbd0-391a-48ac-97e7-d9e8d999c3cf" d="M53.8,23.9h-.2l-5.3-9h.2l5.3,9Z"/>
      <path class="uuid-b3e2fbd0-391a-48ac-97e7-d9e8d999c3cf" d="M71.3,14.7s0,0,0,0h0c-.1,.3-.3,.6-.5,.8-.2,.3-.4,.5-.6,.7-.2,.2-.5,.4-.8,.6s-.7,.4-1.1,.5c-.7,.2-1.3,.3-2,.3-.6,0-1.2-.2-1.8-.5-.6-.3-1.1-.7-1.5-1.2s-.8-1.2-1.1-2c-.3-.8-.4-1.5-.4-2.2,0-.7,.1-1.4,.4-1.9,.3-.6,.6-1.1,1.1-1.6,.5-.5,1.1-.8,1.8-1.1,.4-.1,.7-.2,1-.3,.3,0,.6,0,.9,0,.3,0,.6,0,.8,.1,.3,0,.6,.2,.9,.3h0c0,0,0,0,0,.1,0,0,0,0-.2,0,0,0-.2,0-.3-.1-.1,0-.3,0-.5-.1-.2,0-.4,0-.7,0-.2,0-.5,0-.8,0-.3,0-.6,.1-1,.3-.7,.2-1.2,.6-1.7,1-.5,.4-.8,.9-1.1,1.5-.2,.6-.4,1.2-.4,1.9,0,.7,.1,1.4,.4,2.2,.3,.8,.6,1.4,1.1,1.9,.4,.5,.9,.9,1.5,1.2,.5,.3,1.1,.4,1.7,.5,.6,0,1.2,0,1.9-.3,.4-.1,.7-.3,1-.5s.6-.4,.8-.6c.2-.2,.4-.4,.6-.7,.2-.2,.3-.5,.5-.8,0,0,0,0,0,0Z"/>
      <path class="uuid-b3e2fbd0-391a-48ac-97e7-d9e8d999c3cf" d="M89.5,12.8h-.1s0,0,0,0l-1.9-3.3-5.5,.7-1,3.7c0,0,0,0,0,0h-.1l3.1-10.9h.1l5.6,9.9Zm-7.6-2.8l5.4-.7-3.3-5.9c0,0,0-.1,0-.1,0,0,0,0,0-.1,0,0,0,.1,0,.2,0,0,0,.1,0,.2l-1.8,6.5Z"/>
    </g>
  </g>
</svg>