<?xml version="1.0" encoding="UTF-8"?>
<svg id="uuid-22cabcca-5695-48db-adc9-fc70bd3809f5" data-name="Layer 2" xmlns="http://www.w3.org/2000/svg" width="126.9" height="82.2" viewBox="0 0 126.9 82.2">
  <defs>
    <style>
      .uuid-586ba0ea-8250-41dd-9f05-044a1e382651 {
        fill: #4d4d4d;
      }
    </style>
  </defs>
  <g id="uuid-84bde8b7-a036-4a8b-a6f4-3cf0cf5dc14e" data-name="Capa 1">
    <g>
      <path class="uuid-586ba0ea-8250-41dd-9f05-044a1e382651" d="M115.7,82.2H11.3c-6.2,0-11.3-5.1-11.3-11.3V11.3C0,5.1,5.1,0,11.3,0H95.7c1.1,0,2.1,.9,2.1,2.1s-.9,2.1-2.1,2.1H11.3c-3.9,0-7.2,3.2-7.2,7.2v59.7c0,3.9,3.2,7.2,7.2,7.2H115.7c3.9,0,7.2-3.2,7.2-7.2V11.3c0-3.9-3.2-7.2-7.2-7.2h-7.5c-1.1,0-2.1-.9-2.1-2.1s.9-2.1,2.1-2.1h7.5c6.2,0,11.3,5.1,11.3,11.3v59.7c0,6.2-5.1,11.3-11.3,11.3Z"/>
      <path class="uuid-586ba0ea-8250-41dd-9f05-044a1e382651" d="M64.4,46.7c-4.1,0-8.3-1-12-3.1,0,0-.1,0-.2-.1L10.4,12.9c-.9-.7-1.1-2-.4-2.9,.7-.9,2-1.1,2.9-.4l41.8,30.5c6.2,3.5,13.9,3.4,20.1-.2L114.1,9.6c.9-.7,2.2-.5,2.9,.4,.7,.9,.5,2.2-.4,2.9l-39.6,30.3c0,0-.1,0-.2,.1-3.8,2.2-8.1,3.4-12.4,3.4Z"/>
      <g>
        <path class="uuid-586ba0ea-8250-41dd-9f05-044a1e382651" d="M11.7,73.5c-.7,0-1.4-.3-1.8-1-.6-1-.3-2.2,.7-2.8l36-22.2c1-.6,2.2-.3,2.8,.7,.6,1,.3,2.2-.7,2.8L12.8,73.2c-.3,.2-.7,.3-1.1,.3Z"/>
        <path class="uuid-586ba0ea-8250-41dd-9f05-044a1e382651" d="M115.2,73.5c-.4,0-.7,0-1.1-.3l-36-22.2c-1-.6-1.3-1.9-.7-2.8,.6-1,1.9-1.3,2.8-.7l36,22.2c1,.6,1.3,1.9,.7,2.8-.4,.6-1.1,1-1.8,1Z"/>
      </g>
    </g>
  </g>
</svg>