<?xml version="1.0" encoding="UTF-8"?>
<svg xmlns="http://www.w3.org/2000/svg" width="114.8" height="56.5" viewBox="0 0 114.8 56.5">
  <defs>
    <style>
      .uuid-3a95e493-b29e-4dbf-ab10-bd9731b4a07e {
        fill: #FFF;
      }
    </style>
  </defs>
    <g>
      <path class="uuid-3a95e493-b29e-4dbf-ab10-bd9731b4a07e" d="M66.6,.3V6.2h-.4c-.2-4.1-5.2-5.6-6.4-5.6h-.4V16.7c0,1.9,.7,2.9,1.8,2.9v.4h-8.5v-.4c1.1,0,1.8-1,1.8-2.9V.6h-.4c-1.2,0-6.2,1.5-6.4,5.6h-.4V.3h19.2Z"/>
      <path class="uuid-3a95e493-b29e-4dbf-ab10-bd9731b4a07e" d="M77.3,.3v.4c-1.2,0-2.1,.4-2.1,2.5v13.6c0,2.3,.9,2.9,2.1,2.9v.4h-9v-.4c1.2,0,2.1-.6,2.1-2.9V3.1c0-2.1-.9-2.5-2.1-2.5V.3h9Z"/>
      <path class="uuid-3a95e493-b29e-4dbf-ab10-bd9731b4a07e" d="M98.4,19.9h-8.9v-.3c2.2,0,.6-3.1,.6-3.1l-.9-2h-6.1c-.3,.6-.9,5.2,3,5.1v.3h-7.5v-.3c.8,0,1.9,0,4.3-5.8L88.3,.3h.3c7,16.3,7.3,17.2,7.3,17.2,1,2.2,1.8,2.1,2.4,2.2v.3Zm-12.3-13.1l-2.8,7.2h5.8l-3.1-7.2Z"/>
      <path class="uuid-3a95e493-b29e-4dbf-ab10-bd9731b4a07e" d="M107.5,20.2c-5.4,0-7.6-1.6-7.6-1.6v-5.4h.4c.5,1.8,2.5,6.6,7.2,6.6s3.9-3.9,.5-6.4l-4.3-2.7c-4-2.5-5.2-5.6-2.9-8.6,0,0,1.5-2.1,6-2.1s6.9,1.3,6.9,1.3V6h-.4c-.6-1.7-2.1-5.6-6.5-5.6s-4,3.5-.4,5.9l4.3,2.9c3.7,2.4,4.9,5.7,2.9,8.8,0,0-1.4,2.3-6.1,2.3"/>
      <path class="uuid-3a95e493-b29e-4dbf-ab10-bd9731b4a07e" d="M70.6,44.9h-9.1v-.3c2.2,0,.7-3.2,.7-3.2l-.9-2h-6.2c-.3,.7-.9,5.3,3,5.2v.3h-7.6v-.3c.8,0,1.9,0,4.4-6l5.4-13.8h.3c7.1,16.6,7.5,17.5,7.5,17.5,1,2.3,1.8,2.2,2.5,2.2v.3Zm-12.6-13.3l-2.8,7.4h6l-3.1-7.4Z"/>
      <path class="uuid-3a95e493-b29e-4dbf-ab10-bd9731b4a07e" d="M80,44.9h-8v-.4c1.2,0,1.9-1.6,1.9-3.5v-12.2c0-1.8-.7-3.6-1.9-3.6v-.4h8c5.7,0,12.2,1.8,12.2,10.1s-6.5,9.9-12.2,9.9m0-19.7h-1.3v19.3h1.3c3.1,0,6.1-.5,6.1-9.6s-2.9-9.7-6.1-9.7"/>
      <path class="uuid-3a95e493-b29e-4dbf-ab10-bd9731b4a07e" d="M104.5,45.1c-6.3,0-10.1-4.5-10.1-10.1s3.8-10.4,10.1-10.4,10.1,4.8,10.1,10.4-3.8,10.1-10.1,10.1m0-20.2c-3.4,0-4.2,2.2-4.2,10.1s.9,9.8,4.2,9.8,4.2-1.9,4.2-9.8-.8-10.1-4.2-10.1"/>
      <path class="uuid-3a95e493-b29e-4dbf-ab10-bd9731b4a07e" d="M27.5,19.9h-8.5v-.4c1.3,0,1.7-.7,1.7-2.6V1.3l-7.4,18.9h-.4L4.6,3.4V12.7c0,1.8,.5,6.9,4.1,6.9v.4H0v-.4c3.6,0,4.2-5,4.2-6.9V2.8C3.1,.9,2,.7,1.2,.6V.3h7.5l6.7,13.5L20.7,.3h6.5v.4c-1.3,0-1.7,.6-1.7,2.3v14.1c0,1.9,.7,2.6,2,2.6v.4Z"/>
      <path class="uuid-3a95e493-b29e-4dbf-ab10-bd9731b4a07e" d="M48,19.9h-8.9v-.3c2.2,0,.6-3.1,.6-3.1l-.9-2h-6.1c-.3,.6-.9,5.2,3,5.1v.3h-7.5v-.3c.8,0,1.9,0,4.3-5.8L38,.3h.3c7,16.3,7.3,17.2,7.3,17.2,1,2.2,1.8,2.1,2.4,2.2v.3Zm-12.3-13.1l-2.8,7.2h5.8l-3.1-7.2Z"/>
      <path class="uuid-3a95e493-b29e-4dbf-ab10-bd9731b4a07e" d="M21,44.9H12v-.3c2.2,0,.7-3.2,.7-3.2l-.9-2H5.6c-.3,.7-.9,5.3,3,5.2v.3H1v-.3c.8,0,1.9,0,4.4-6l5.4-13.8h.3c7.1,16.6,7.5,17.5,7.5,17.5,1,2.3,1.8,2.2,2.5,2.2v.3Zm-12.6-13.3l-2.8,7.4h6l-3.1-7.4Z"/>
      <path class="uuid-3a95e493-b29e-4dbf-ab10-bd9731b4a07e" d="M49.6,44.9h-8.7v-.4c1.3,0,1.8-.7,1.8-2.7v-15.9l-7.5,19.3h-.4l-8.6-17.1v9.5c0,1.9,.5,7,4.1,7v.4h-8.8v-.4c3.7,0,4.3-5.1,4.3-7v-10.1c-1.1-1.9-2.2-2.2-3-2.2v-.4h7.7l6.9,13.8,5.3-13.8h6.6v.4c-1.3,0-1.8,.6-1.8,2.3v14.3c0,1.9,.7,2.7,2,2.7v.4Z"/>
      <path class="uuid-3a95e493-b29e-4dbf-ab10-bd9731b4a07e" d="M4.7,55.4s0,0,.1,0l.3,.3c-.2,.2-.5,.4-.7,.6s-.6,.2-1.1,.2-.7,0-1-.2c-.3-.1-.5-.3-.8-.5s-.4-.5-.5-.8c-.1-.3-.2-.7-.2-1s0-.7,.2-1c.1-.3,.3-.6,.5-.8,.2-.2,.5-.4,.8-.5s.6-.2,1-.2,.7,0,1,.2c.3,.1,.5,.3,.7,.5l-.2,.3s0,0,0,0c0,0,0,0,0,0s0,0,0,0,0,0-.1,0c0,0-.1,0-.2-.1,0,0-.1,0-.2-.1s-.2,0-.3,0c-.1,0-.2,0-.4,0-.3,0-.5,0-.7,.1-.2,0-.4,.2-.6,.4s-.3,.4-.4,.6c0,.2-.1,.5-.1,.8s0,.6,.1,.8c0,.2,.2,.5,.4,.6,.2,.2,.3,.3,.6,.4,.2,0,.4,.1,.7,.1s.3,0,.4,0c.1,0,.2,0,.3,0,.1,0,.2,0,.3-.1,0,0,.2-.1,.3-.2,0,0,0,0,.1,0Z"/>
      <path class="uuid-3a95e493-b29e-4dbf-ab10-bd9731b4a07e" d="M10.2,56.4h-.7v-5h.7v5Z"/>
      <path class="uuid-3a95e493-b29e-4dbf-ab10-bd9731b4a07e" d="M15.8,54.3v2.1h-.7v-5h1.4c.3,0,.6,0,.8,0,.2,0,.4,.2,.6,.3,.2,.1,.3,.3,.3,.4,0,.2,.1,.4,.1,.6s0,.3,0,.5-.1,.3-.2,.4c-.1,.1-.2,.2-.4,.3-.2,0-.3,.2-.5,.2,0,0,.2,.1,.2,.2l1.5,2h-.6c-.1,0-.2,0-.3-.1l-1.3-1.8c0,0,0,0-.1-.1s-.1,0-.2,0h-.5Zm0-.5h.7c.2,0,.4,0,.5,0,.2,0,.3-.1,.4-.2,.1,0,.2-.2,.2-.3,0-.1,0-.3,0-.4,0-.3,0-.5-.3-.7-.2-.2-.5-.2-.9-.2h-.7v1.9Z"/>
      <path class="uuid-3a95e493-b29e-4dbf-ab10-bd9731b4a07e" d="M25,55.9c.2,0,.4,0,.6-.1,.2,0,.3-.2,.4-.3,.1-.1,.2-.3,.3-.5,0-.2,0-.4,0-.6v-3h.7v3c0,.3,0,.6-.1,.8s-.2,.5-.4,.6c-.2,.2-.4,.3-.6,.4-.2,.1-.5,.2-.8,.2s-.6,0-.8-.2c-.2-.1-.5-.2-.6-.4-.2-.2-.3-.4-.4-.6s-.1-.5-.1-.8v-3h.7v3c0,.2,0,.4,0,.6,0,.2,.1,.3,.3,.5,.1,.1,.3,.2,.4,.3,.2,0,.4,.1,.6,.1Z"/>
      <path class="uuid-3a95e493-b29e-4dbf-ab10-bd9731b4a07e" d="M33.9,55.9c.1,0,.3,0,.4,0,.1,0,.2,0,.3,0,.1,0,.2,0,.3,0,0,0,.2,0,.3-.1v-1.1h-.8s0,0-.1,0c0,0,0,0,0,0v-.4h1.5v1.9c-.1,0-.3,.2-.4,.2-.1,0-.3,.1-.4,.2-.2,0-.3,0-.5,.1-.2,0-.4,0-.6,0-.4,0-.7,0-1-.2-.3-.1-.6-.3-.8-.5s-.4-.5-.5-.8c-.1-.3-.2-.7-.2-1s0-.7,.2-1c.1-.3,.3-.6,.5-.8s.5-.4,.8-.5c.3-.1,.7-.2,1.1-.2s.4,0,.6,0,.3,0,.5,.1c.1,0,.3,.1,.4,.2,.1,0,.2,.2,.3,.3l-.2,.3c0,0,0,0-.2,0s0,0-.1,0c0,0-.1,0-.2-.1,0,0-.2,0-.3-.1-.1,0-.2,0-.4-.1-.1,0-.3,0-.5,0-.3,0-.5,0-.8,.1-.2,0-.4,.2-.6,.4-.2,.2-.3,.4-.4,.6s-.1,.5-.1,.8,0,.6,.1,.8,.2,.5,.4,.6c.2,.2,.4,.3,.6,.4,.2,0,.5,.1,.7,.1Z"/>
      <path class="uuid-3a95e493-b29e-4dbf-ab10-bd9731b4a07e" d="M41.1,56.4h-.7v-5h.7v5Z"/>
      <path class="uuid-3a95e493-b29e-4dbf-ab10-bd9731b4a07e" d="M50,56.4h-.5c0,0-.1,0-.1,0,0,0,0,0,0-.1l-.5-1.2h-2.2l-.5,1.2s0,0,0,.1,0,0-.1,0h-.5l2-5h.7l2,5Zm-3.3-1.9h1.9l-.8-2c0-.1-.1-.3-.2-.5,0,0,0,.2,0,.3,0,0,0,.2,0,.2l-.8,2Z"/>
      <path class="uuid-3a95e493-b29e-4dbf-ab10-bd9731b4a07e" d="M59.5,54.5v1.9h-.7v-5h1.5c.3,0,.6,0,.8,.1,.2,0,.4,.2,.6,.3,.2,.1,.3,.3,.3,.5s.1,.4,.1,.6,0,.4-.1,.6c0,.2-.2,.4-.4,.5s-.4,.2-.6,.3c-.2,0-.5,.1-.8,.1h-.8Zm0-.5h.8c.2,0,.4,0,.5,0s.3-.1,.4-.2,.2-.2,.2-.3,0-.3,0-.4c0-.3,0-.6-.3-.7s-.5-.3-.9-.3h-.8v2.1Z"/>
      <path class="uuid-3a95e493-b29e-4dbf-ab10-bd9731b4a07e" d="M67.2,55.8h2.2v.6h-2.8v-5h.7v4.4Z"/>
      <path class="uuid-3a95e493-b29e-4dbf-ab10-bd9731b4a07e" d="M77.8,56.4h-.5c0,0-.1,0-.1,0,0,0,0,0,0-.1l-.5-1.2h-2.2l-.5,1.2s0,0,0,.1,0,0-.1,0h-.5l2-5h.7l2,5Zm-3.3-1.9h1.9l-.8-2c0-.1-.1-.3-.2-.5,0,0,0,.2,0,.3,0,0,0,.2,0,.2l-.8,2Z"/>
      <path class="uuid-3a95e493-b29e-4dbf-ab10-bd9731b4a07e" d="M84.5,52.2s0,0,0,0c0,0,0,0,0,0s0,0-.1,0c0,0-.1,0-.2-.1,0,0-.2,0-.3-.1-.1,0-.3,0-.4,0s-.3,0-.4,0-.2,0-.3,.2-.1,.2-.2,.2c0,0,0,.2,0,.3s0,.3,.1,.3c0,0,.2,.2,.3,.2s.2,.1,.4,.2,.3,0,.4,.1c.2,0,.3,.1,.4,.2s.3,.1,.4,.2c.1,0,.2,.2,.3,.4,0,.1,.1,.3,.1,.5s0,.4-.1,.6c0,.2-.2,.4-.3,.5-.1,.1-.3,.3-.5,.3-.2,0-.4,.1-.7,.1s-.6,0-.9-.2c-.3-.1-.5-.3-.7-.5l.2-.3s0,0,0,0c0,0,0,0,0,0,0,0,.1,0,.2,0,0,0,.1,.1,.2,.2,0,0,.2,.1,.3,.2,.1,0,.3,0,.5,0s.3,0,.4,0c.1,0,.2-.1,.3-.2,0,0,.2-.2,.2-.3,0-.1,0-.2,0-.4s0-.3-.1-.4c0,0-.2-.2-.3-.2-.1,0-.2-.1-.4-.2s-.3,0-.4-.1c-.2,0-.3-.1-.4-.2s-.3-.1-.4-.2c-.1-.1-.2-.2-.3-.4,0-.2-.1-.3-.1-.6s0-.3,.1-.5c0-.2,.2-.3,.3-.4,.1-.1,.3-.2,.5-.3,.2,0,.4-.1,.7-.1s.5,0,.8,.1,.4,.2,.6,.4l-.2,.3Z"/>
      <path class="uuid-3a95e493-b29e-4dbf-ab10-bd9731b4a07e" d="M92.5,51.4v.6h-1.6v4.4h-.7v-4.4h-1.6v-.6h3.9Z"/>
      <path class="uuid-3a95e493-b29e-4dbf-ab10-bd9731b4a07e" d="M97.5,56.4h-.7v-5h.7v5Z"/>
      <path class="uuid-3a95e493-b29e-4dbf-ab10-bd9731b4a07e" d="M105.9,55.4s0,0,.1,0l.3,.3c-.2,.2-.5,.4-.7,.6s-.6,.2-1.1,.2-.7,0-1-.2c-.3-.1-.5-.3-.8-.5s-.4-.5-.5-.8c-.1-.3-.2-.7-.2-1s0-.7,.2-1c.1-.3,.3-.6,.5-.8,.2-.2,.5-.4,.8-.5s.6-.2,1-.2,.7,0,1,.2c.3,.1,.5,.3,.7,.5l-.2,.3s0,0,0,0c0,0,0,0,0,0s0,0,0,0,0,0-.1,0c0,0-.1,0-.2-.1,0,0-.1,0-.2-.1s-.2,0-.3,0c-.1,0-.2,0-.4,0-.3,0-.5,0-.7,.1-.2,0-.4,.2-.6,.4s-.3,.4-.4,.6c0,.2-.1,.5-.1,.8s0,.6,.1,.8c0,.2,.2,.5,.4,.6,.2,.2,.3,.3,.6,.4,.2,0,.4,.1,.7,.1s.3,0,.4,0c.1,0,.2,0,.3,0,.1,0,.2,0,.3-.1,0,0,.2-.1,.3-.2,0,0,0,0,.1,0Z"/>
      <path class="uuid-3a95e493-b29e-4dbf-ab10-bd9731b4a07e" d="M114.8,56.4h-.5c0,0-.1,0-.1,0,0,0,0,0,0-.1l-.5-1.2h-2.2l-.5,1.2s0,0,0,.1,0,0-.1,0h-.5l2-5h.7l2,5Zm-3.3-1.9h1.9l-.8-2c0-.1-.1-.3-.2-.5,0,0,0,.2,0,.3,0,0,0,.2,0,.2l-.8,2Z"/>
    </g>
</svg>