<?xml version="1.0" encoding="UTF-8"?>
<svg id="uuid-e7bc1615-87a0-425b-aa16-b40d9dd09ae5" data-name="Layer 1" xmlns="http://www.w3.org/2000/svg" width="100" height="100" viewBox="0 0 100 100">
  <defs>
    <style>
      .uuid-62abd68d-e3ef-4b82-8b79-83267fba90ea {
        fill: #fff;
      }

      .uuid-26ea83b0-de70-4fd6-921d-765503997784 {
        fill: #b28379;
      }
    </style>
  </defs>
  <rect class="uuid-26ea83b0-de70-4fd6-921d-765503997784" x="-57.3" y="-58.4" width="214" height="217"/>
  <g>
    <path class="uuid-62abd68d-e3ef-4b82-8b79-83267fba90ea" d="M37.2,58.7v.5h-8.4v-.5c4.1,0,4.1-6.5,4.1-6.5h.5s0,6.5,3.8,6.5m-.4-18.9l6.9,14.5-2.1,5.2h-.5l-8.2-17.3c-1-1.8-2.4-1.8-3.1-1.9v-.5h6.9Zm18.5,18.9v.5h-8.3v-.5c1.2,0,2-1,2-2.9v-16.1h6.1v.5c-1.2,0-2.1,.7-2.1,2.4v13.2c0,1.9,1.2,2.9,2.4,2.9"/>
    <path class="uuid-62abd68d-e3ef-4b82-8b79-83267fba90ea" d="M64.8,53.3l-3.5-8.6,1.9-4.9h.5c6.8,16.2,7,16.9,7,16.9,.9,2.2,1.6,2,2.3,2v.5h-7.9v-.5c2.2,0,.7-3,.7-3l-.8-2"/>
    <path class="uuid-62abd68d-e3ef-4b82-8b79-83267fba90ea" d="M60.1,19.2c0,0,0,.1,0,.2,0,0,0,0,.1-.1s0,0,.1-.1l2.1-1.9s0,0,0,0c0,0,0,0,.1,0h.4l-1.3,4h-.5l.9-3s0,0,0-.1c0,0,0,0,0-.1l-2.1,2c0,0-.1,0-.2,0h0c0,0-.1-.1-.1-.2l-.6-2.9s0,0,0,.1c0,0,0,0,0,.1l-.9,2.8h-.5l1.3-4h.4c0,.1,0,.2,.1,.2,0,0,0,0,0,0l.6,2.8c0,0,0,.1,0,.2Z"/>
    <path class="uuid-62abd68d-e3ef-4b82-8b79-83267fba90ea" d="M68.1,24.7l-.4-.2s0,0,0,0c0,0,0,0,0-.1l.2-1-1.5-1-.8,.6s0,0-.1,0c0,0,0,0-.1,0l-.4-.2,3.5-2.6,.5,.3-.8,4.3Zm-1.4-2.7l1.3,.8,.3-1.7c0-.1,0-.2,0-.4,0,0-.1,.1-.2,.1,0,0,0,0-.1,.1l-1.4,1.1Z"/>
    <path class="uuid-62abd68d-e3ef-4b82-8b79-83267fba90ea" d="M75.4,25.6l-.3,.3-.9-.9-2.5,2.6-.4-.4,2.5-2.6-1-.9,.3-.3,2.3,2.2Z"/>
    <path class="uuid-62abd68d-e3ef-4b82-8b79-83267fba90ea" d="M75.3,31.9l-.3-.4,3.3-2.4,.3,.4-3.3,2.4Z"/>
    <path class="uuid-62abd68d-e3ef-4b82-8b79-83267fba90ea" d="M78.9,38.3l-.2-.4s0,0,0-.1c0,0,0,0,0-.1l.7-.8-.8-1.6h-1c0,0,0,0-.1,0s0,0,0,0l-.2-.4,4.3-.3,.2,.5-2.9,3.2Zm.2-3l.7,1.4,1.2-1.3c0,0,.2-.2,.3-.3,0,0-.2,0-.2,0,0,0-.1,0-.2,0h-1.8Z"/>
    <path class="uuid-62abd68d-e3ef-4b82-8b79-83267fba90ea" d="M83.7,42.8s0,0,0,0c0,0,0,0,0,0,0,0,0,0,0-.1,0,0,0-.1,0-.2,0,0,0-.2,0-.3,0,0,0-.2,0-.3,0-.1,0-.2-.1-.3,0,0-.1-.1-.2-.2,0,0-.1,0-.2,0,0,0-.2,0-.3,0-.1,0-.2,0-.3,.1,0,0-.1,.2-.1,.3,0,.1,0,.2,0,.3,0,.1,0,.2,0,.4,0,.1,0,.3,0,.4,0,.1,0,.2-.1,.3,0,.1-.1,.2-.2,.3,0,0-.2,.1-.4,.2-.2,0-.3,0-.5,0-.2,0-.3,0-.5-.2-.1,0-.3-.2-.4-.4s-.2-.3-.2-.5c0-.3,0-.5,0-.7,0-.2,.1-.4,.2-.6h.3c0,.1,0,.1,0,.1,0,0,0,0,0,0,0,0,0,0,0,.1,0,0,0,.1,0,.2s0,.2,0,.3c0,.1,0,.2,0,.4,0,.1,0,.2,.1,.3,0,0,.1,.2,.2,.2,0,0,.2,0,.3,.1,0,0,.2,0,.3,0,.1,0,.2,0,.3-.2,0,0,.1-.2,.1-.3,0,0,0-.2,0-.3,0-.1,0-.2,0-.4,0-.1,0-.3,0-.4s0-.2,.1-.3c0-.1,.1-.2,.2-.3,.1,0,.2-.1,.4-.2,.1,0,.3,0,.4,0,.1,0,.3,0,.4,.2,.1,0,.2,.2,.3,.3,0,.1,.2,.3,.2,.5,0,.2,0,.4,0,.6,0,.2,0,.4-.2,.5h-.3Z"/>
    <path class="uuid-62abd68d-e3ef-4b82-8b79-83267fba90ea" d="M80.6,55.7v-.4c0,0,0,0,0-.1,0,0,0,0,.1,0l1-.3,.2-1.8-.9-.5s0,0,0,0c0,0,0,0,0-.1v-.4l3.9,2.1v.6l-4.3,1.1Zm1.8-2.5l-.2,1.5,1.7-.4c.1,0,.2,0,.4,0,0,0-.1,0-.2,0,0,0-.1,0-.2,0l-1.6-.8Z"/>
    <path class="uuid-62abd68d-e3ef-4b82-8b79-83267fba90ea" d="M80.3,61.4c0,0-.1,0-.2,0,0,0,0,0,.1,.1,0,0,0,0,.1,.1l1.8,2.2s0,0,0,0c0,0,0,0,0,.1v.4l-3.9-1.4,.2-.4,2.8,1s0,0,.1,0c0,0,0,0,.1,0l-1.9-2.2c0,0,0-.2,0-.2h0c0-.2,0-.2,.2-.2l2.9-.4s0,0-.1,0c0,0,0,0-.1,0l-2.8-1,.2-.4,3.8,1.4v.4c-.2,0-.2,0-.2,.1,0,0,0,0-.1,0l-2.8,.4c0,0-.1,0-.2,0Z"/>
    <path class="uuid-62abd68d-e3ef-4b82-8b79-83267fba90ea" d="M74.5,69.2l.2-.3s0,0,0,0c0,0,0,0,.1,0l1,.2,1-1.5-.6-.9s0,0,0-.1c0,0,0,0,0-.1l.2-.3,2.4,3.6-.3,.5-4.2-1Zm2.7-1.3l-.9,1.2,1.7,.4c.1,0,.2,0,.4,.1,0,0,0-.1-.1-.2,0,0,0-.1-.1-.1l-1-1.5Z"/>
    <path class="uuid-62abd68d-e3ef-4b82-8b79-83267fba90ea" d="M70.9,75.6c-.2-.2-.4-.5-.5-.7s-.1-.5-.1-.7c0-.2,0-.5,.2-.7,.1-.2,.3-.5,.5-.7l1.1-1,2.7,3-1.1,1c-.2,.2-.5,.3-.7,.4s-.5,.1-.7,.1c-.2,0-.5,0-.7-.2-.2-.1-.5-.3-.7-.5Zm.4-.4c.2,.2,.3,.3,.5,.4,.2,0,.4,.2,.5,.2,.2,0,.4,0,.5,0,.2,0,.3-.2,.5-.3l.7-.6-2.1-2.3-.7,.6c-.2,.1-.3,.3-.4,.5,0,.2-.1,.3-.1,.5s0,.4,.1,.6c0,.2,.2,.4,.4,.6Z"/>
    <path class="uuid-62abd68d-e3ef-4b82-8b79-83267fba90ea" d="M64,80c-.1-.3-.2-.5-.3-.8,0-.3,0-.5,0-.8,0-.2,.2-.5,.4-.7,.2-.2,.4-.4,.6-.5,.3-.1,.5-.2,.8-.3,.3,0,.5,0,.8,0,.2,0,.5,.2,.7,.4s.4,.4,.5,.7,.2,.5,.3,.8c0,.3,0,.5,0,.8,0,.2-.2,.5-.3,.7-.2,.2-.4,.4-.6,.5-.3,.1-.5,.2-.8,.3-.3,0-.5,0-.8,0-.2,0-.5-.2-.7-.4-.2-.2-.4-.4-.5-.7Zm.5-.3c.1,.2,.3,.4,.4,.5,.2,.1,.3,.2,.5,.3,.2,0,.4,0,.5,0,.2,0,.4,0,.6-.2,.2-.1,.3-.2,.5-.4,.1-.2,.2-.3,.2-.5,0-.2,0-.4,0-.6s-.1-.4-.2-.6c-.1-.2-.3-.4-.4-.5-.2-.1-.3-.2-.5-.3-.2,0-.4,0-.5,0-.2,0-.4,0-.6,.2-.2,.1-.3,.2-.5,.4-.1,.1-.2,.3-.2,.5s0,.4,0,.6c0,.2,.1,.4,.2,.6Z"/>
    <path class="uuid-62abd68d-e3ef-4b82-8b79-83267fba90ea" d="M47.1,81.7s0,0,0,0l-.2-.2c.2-.2,.4-.3,.6-.4,.2,0,.5-.1,.9-.1,.3,0,.6,0,.8,.2,.2,.1,.4,.3,.6,.5,.2,.2,.3,.4,.4,.7s.1,.5,0,.8c0,.3,0,.6-.2,.8-.1,.2-.3,.5-.4,.6-.2,.2-.4,.3-.7,.4-.3,0-.5,.1-.8,.1-.3,0-.5,0-.8-.2-.2-.1-.4-.2-.6-.4l.2-.2s0,0,0,0c0,0,0,0,0,0,0,0,0,0,0,0s0,0,0,0,0,0,.1,0,.1,0,.2,0c0,0,.1,0,.2,0,0,0,.2,0,.3,0,.2,0,.4,0,.6,0,.2,0,.3-.2,.5-.3,.1-.1,.2-.3,.3-.5,0-.2,.1-.4,.1-.7,0-.3,0-.5,0-.7,0-.2-.2-.4-.3-.5-.1-.1-.3-.3-.4-.3-.2,0-.4-.1-.5-.1-.1,0-.2,0-.3,0,0,0-.2,0-.3,0,0,0-.2,0-.2,.1,0,0-.1,0-.2,.2,0,0,0,0,0,0Z"/>
    <path class="uuid-62abd68d-e3ef-4b82-8b79-83267fba90ea" d="M42.4,80.1h.5l-.9,4.1h-.5l.9-4.1Z"/>
    <path class="uuid-62abd68d-e3ef-4b82-8b79-83267fba90ea" d="M37.3,80.2l.7-1.5,.5,.2-1.6,3.7-1-.5c-.2-.1-.4-.2-.6-.3-.1-.1-.3-.3-.3-.4s-.1-.3-.1-.4c0-.2,0-.3,.1-.5,0-.1,.1-.2,.2-.3,0,0,.2-.2,.3-.2,.1,0,.2,0,.4-.1,.1,0,.3,0,.4,0,0,0,0-.1,0-.2l-.4-1.9,.4,.2c0,0,.1,.1,.2,.2l.4,1.7c0,0,0,0,0,.1,0,0,0,0,.1,0l.4,.2Zm-.2,.4l-.5-.2c-.1,0-.3-.1-.4-.1-.1,0-.2,0-.3,0-.1,0-.2,0-.3,.2,0,0-.1,.2-.2,.3,0,.2,0,.4,0,.6s.3,.3,.6,.5l.5,.2,.6-1.4Z"/>
    <path class="uuid-62abd68d-e3ef-4b82-8b79-83267fba90ea" d="M31.3,75.2c-.1,0-.3-.2-.4-.2-.1,0-.3,0-.4,0s-.3,0-.4,.2c-.1,0-.2,.2-.3,.3l-1.5,2-.4-.3,1.5-2c.1-.2,.3-.3,.5-.5s.4-.2,.6-.2c.2,0,.4,0,.6,0,.2,0,.4,.2,.6,.3,.2,.1,.4,.3,.5,.5,.1,.2,.2,.4,.2,.6,0,.2,0,.4,0,.6,0,.2-.2,.4-.3,.6l-1.5,2-.4-.3,1.5-2c.1-.1,.2-.3,.2-.4,0-.1,0-.3,0-.4,0-.1,0-.3-.1-.4,0-.1-.2-.2-.3-.3Z"/>
    <path class="uuid-62abd68d-e3ef-4b82-8b79-83267fba90ea" d="M25.8,70c0,0-.1-.2-.2-.2,0,0-.1-.1-.2-.2,0,0-.1,0-.2-.1,0,0-.1,0-.2,0l-.7,.6,.4,.5s0,0,0,0,0,0,0,0l-.2,.2-.8-1,1.2-1c.1,0,.2,0,.4,.1,.1,0,.2,.1,.3,.2,.1,0,.2,.2,.3,.3s.2,.2,.3,.3c.2,.2,.3,.5,.4,.7,0,.3,.1,.5,0,.8,0,.3-.1,.5-.2,.7-.1,.2-.3,.5-.5,.7-.2,.2-.5,.3-.7,.4-.3,0-.5,.1-.8,.1-.3,0-.5,0-.7-.2-.2-.1-.5-.3-.7-.6-.1-.1-.2-.2-.3-.4,0-.1-.1-.2-.2-.4,0-.1,0-.2,0-.4,0-.1,0-.2,0-.4h.3c0,0,.1,0,.1,0,0,0,0,0,0,0,0,0,0,.1,0,.2s0,.1,0,.2c0,0,0,.2,.1,.3,0,.1,.1,.2,.2,.3,.1,.2,.3,.3,.5,.4,.2,0,.4,.1,.5,.2,.2,0,.4,0,.6,0,.2,0,.4-.2,.6-.3,.2-.2,.3-.3,.5-.5,.1-.2,.2-.4,.2-.6,0-.2,0-.4,0-.6,0-.2-.2-.4-.3-.5Z"/>
    <path class="uuid-62abd68d-e3ef-4b82-8b79-83267fba90ea" d="M22.6,64.6l.3,.5-3.5,2-.3-.5,3.5-2Z"/>
    <path class="uuid-62abd68d-e3ef-4b82-8b79-83267fba90ea" d="M19.9,57.9v.4c.1,0,.1,0,.1,.1,0,0,0,0,0,0l-.8,.7,.6,1.7h1c0,0,0,0,.1,0,0,0,0,0,0,.1v.4l-4.2-.3-.2-.5,3.3-2.8Zm-.6,3l-.5-1.4-1.4,1.1c0,0-.2,.1-.3,.2,0,0,.2,0,.2,0,0,0,.1,0,.2,0h1.8Z"/>
    <path class="uuid-62abd68d-e3ef-4b82-8b79-83267fba90ea" d="M17.5,49.1h1.5v.6l-4.1-.2v-1.2c0-.3,0-.5,.2-.7,0-.2,.2-.3,.3-.5,.1-.1,.2-.2,.4-.3,.2,0,.3,0,.5,0,.2,0,.4,0,.5,.1,.2,0,.3,.2,.4,.3,.1,.1,.2,.3,.2,.5,0,.2,0,.4,0,.6v.6Zm-.5,0v-.6c0-.2,0-.3,0-.4,0-.1,0-.2-.2-.3s-.2-.1-.3-.2c-.1,0-.2,0-.3,0-.3,0-.5,0-.6,.2-.2,.2-.2,.4-.2,.7v.6h1.6Z"/>
    <path class="uuid-62abd68d-e3ef-4b82-8b79-83267fba90ea" d="M19.3,42.8l.4-1.7h.4l-.5,2.3-3.9-1v-.5l3.6,.9Z"/>
    <path class="uuid-62abd68d-e3ef-4b82-8b79-83267fba90ea" d="M22.9,34.7l-.2,.4s0,0,0,0c0,0,0,0-.1,0h-1l-.8,1.6,.7,.8s0,0,0,.1c0,0,0,0,0,.1l-.2,.4-2.9-3.2,.2-.5,4.3,.3Zm-2.5,1.7l.7-1.4h-1.8c-.1-.1-.2-.2-.4-.2,0,0,.1,.1,.2,.1,0,0,0,0,.1,.1l1.2,1.3Z"/>
    <path class="uuid-62abd68d-e3ef-4b82-8b79-83267fba90ea" d="M23.4,28.1s0,0,0,0c0,0,0,0,0,0,0,0,0,0-.1,0,0,0-.1,0-.2,0s-.1,0-.2,.1c0,0-.2,.1-.2,.2,0,0-.1,.2-.2,.3s0,.2,0,.3,0,.2,0,.2c0,0,0,.1,.2,.2,0,0,.2,.1,.3,.1,0,0,.2,0,.3,0s.2,0,.3-.2c.1,0,.2-.1,.3-.2,.1,0,.2-.1,.3-.2,.1,0,.2-.1,.3-.1,.1,0,.2,0,.4,0,.1,0,.3,0,.4,.2,.1,.1,.3,.2,.3,.4,0,.1,.1,.3,.2,.5,0,.2,0,.3,0,.5s-.1,.3-.3,.5c-.2,.2-.3,.4-.5,.5s-.4,.2-.6,.2v-.3c-.1,0-.1,0-.1,0,0,0,0,0,0,0,0,0,0,0,.1,0,0,0,.1,0,.2,0,0,0,.2,0,.3-.1,0,0,.2-.2,.3-.3,0-.1,.1-.2,.2-.3,0-.1,0-.2,0-.3,0,0,0-.2,0-.3,0,0-.1-.2-.2-.2,0,0-.2-.1-.3-.1,0,0-.2,0-.3,0,0,0-.2,0-.3,.2,0,0-.2,.1-.3,.2-.1,0-.2,.1-.3,.2s-.2,.1-.3,.1c-.1,0-.2,0-.4,0-.1,0-.3,0-.4-.2-.1,0-.2-.2-.3-.3,0-.1-.1-.3-.1-.4,0-.1,0-.3,0-.5s.1-.3,.3-.5c.1-.2,.3-.3,.5-.4,.2-.1,.4-.2,.5-.2v.3Z"/>
    <path class="uuid-62abd68d-e3ef-4b82-8b79-83267fba90ea" d="M28.4,22.3l.3,.3-1,.9,2.3,2.7-.4,.4-2.3-2.7-1,.9-.3-.3,2.4-2.1Z"/>
    <path class="uuid-62abd68d-e3ef-4b82-8b79-83267fba90ea" d="M34.6,23l-.5,.3-2.1-3.5,.5-.3,2.1,3.5Z"/>
    <path class="uuid-62abd68d-e3ef-4b82-8b79-83267fba90ea" d="M40.6,19.5s0,0,0,0h.3c0,.4-.2,.6-.4,.8-.2,.2-.4,.3-.7,.4-.3,0-.5,.1-.8,.1-.3,0-.5,0-.7-.2-.2-.1-.4-.3-.6-.5-.2-.2-.3-.5-.4-.7-.1-.3-.2-.6-.1-.8,0-.3,0-.5,.2-.8,.1-.2,.3-.4,.5-.6,.2-.2,.4-.3,.7-.4,.3-.1,.5-.1,.8-.1,.2,0,.5,0,.7,.2v.3c0,0,0,0-.1,0,0,0,0,0,0,0,0,0,0,0,0,0,0,0,0,0-.1,0,0,0,0,0-.2,0,0,0-.1,0-.2,0,0,0-.2,0-.3,0,0,0-.2,0-.3,0-.2,0-.4,.2-.5,.3-.1,.1-.3,.3-.3,.5,0,.2-.1,.4-.1,.6,0,.2,0,.4,.1,.7,0,.2,.2,.4,.3,.6,.1,.2,.3,.3,.4,.4,.2,0,.3,.1,.5,.1,.2,0,.4,0,.6,0,.1,0,.2,0,.3-.1,0,0,.2,0,.2-.2,0,0,.1-.1,.2-.2,0,0,0-.1,.1-.2,0,0,0,0,0,0Z"/>
    <path class="uuid-62abd68d-e3ef-4b82-8b79-83267fba90ea" d="M48.2,18.9h-.4c0,0,0,0-.1,0,0,0,0,0,0,0l-.5-.9-1.8,.2-.3,1s0,0,0,0c0,0,0,0-.1,0h-.4l1.1-4.2h.6l2.1,3.8Zm-2.8-1.2l1.5-.2-.8-1.6c0,0-.1-.2-.2-.4,0,0,0,.2,0,.2,0,0,0,.1,0,.2l-.4,1.7Z"/>
  </g>
</svg>