<?xml version="1.0" encoding="utf-8"?>
<!-- Generator: Adobe Illustrator 26.3.0, SVG Export Plug-In . SVG Version: 6.00 Build 0)  -->
<svg version="1.1" id="Layer_1" xmlns="http://www.w3.org/2000/svg" xmlns:xlink="http://www.w3.org/1999/xlink" x="0px" y="0px"
	 viewBox="0 0 200 200" style="enable-background:new 0 0 200 200;" xml:space="preserve">
<style type="text/css">
	.st0{fill:#4D4D4D;}
	.st1{fill:#FFFFFF;}
</style>
<rect x="-11.3" y="-5.3" class="st0" width="229.9" height="211.7"/>
<g>
	<path class="st1" d="M41.9,73.2c0,0-0.1-0.1-0.1-0.1l-19.4,0c-0.1,0-0.1,0-0.1,0.1l0,1.1c0,0.1,0,0.1,0.1,0.1
		c0.6,0,1.3,0.1,1.9,0.2c3.4,0.6,5.6,2.8,7.1,5.9c7.5,15.9,15,31.8,22.5,47.6c0,0.1,0.1,0.1,0.2,0.1h1c0.1,0,0.2-0.1,0.3-0.2
		l5.7-14.1c0-0.1,0-0.2,0-0.3L41.9,73.2z"/>
	<path class="st1" d="M86,114L67,73.6c0-0.1-0.1-0.1-0.2-0.1l-19.2-0.1c0,0,0,0,0,0c0,0,0,0,0,0c0,0,0,0,0,0c0,0,0,0.1,0,0.1l0,1.2
		c0,0,0,0.1,0.1,0.1c0.4,0,0.8,0.1,1.2,0.1c3.7,0.4,6.2,2.7,7.8,6.1c7.4,15.9,14.8,31.7,22.2,47.5c0,0.1,0.1,0.2,0.2,0.2
		c0.3,0,0.7,0,1,0c0.1,0,0.2-0.1,0.3-0.2l5.7-14C86.1,114.3,86.1,114.1,86,114z"/>
	<path class="st1" d="M42.8,126.3C42.8,126.3,42.8,126.3,42.8,126.3C42.8,126.3,42.8,126.3,42.8,126.3c-4.2,0-6.8-3.1-8.3-6.6
		c-0.6-1.5-1.1-3.1-1.4-4.7c-0.4-2.3-0.7-4.6-0.8-7c0,0,0-0.1-0.1-0.1l-1.2,0c0,0-0.1,0-0.1,0.1c-0.1,2.9-0.5,5.6-1.2,8.3
		c-0.9,3.4-2.7,7.1-6,8.9c-1.4,0.7-2.8,1.1-4.3,1.1c0,0,0,0,0,0c0,0-0.1,0-0.1,0.1l0,1.2v0c0,0,0,0,0,0c0,0,0,0,0,0c0,0,0,0,0.1,0
		c0.3,0,0.6,0,0.9,0c7.5,0,14.9,0,22.4,0c0,0,0.1,0,0.1-0.1l0-1.1c0,0,0,0,0,0v0c0,0,0,0,0,0C42.9,126.4,42.9,126.3,42.8,126.3z"/>
	<g>
		<path class="st1" d="M112,85.7V86h-5.9v-0.3c1.6,0,0.5-2.2,0.5-2.2l-0.6-1.5h-4.8c0,0-1.3,3.8,2,3.7V86h-5v-0.3c0.5,0,1,0.1,3-4.7
			l3.5-9.3h0.3c5,12,5.2,12.6,5.2,12.6C111,85.8,111.5,85.6,112,85.7z M105.9,81.6l-2.4-6l-2.2,6H105.9z"/>
		<path class="st1" d="M121.7,81.1h-6.5c0.2,2,1.2,3,2.6,3.4c1.1,0.2,2.7-0.2,3.3-1.1l0.3,0.2c-0.3,1.1-1.5,2.7-4.3,2.7
			c-2.7,0-4.5-2.5-4.5-4.9c0-2.9,2-5,4.8-5C120.4,76.4,121.7,77.9,121.7,81.1z M119.3,80.7c0-2.6-0.8-4-2-4c-1.2,0-2,2.1-2,4H119.3z
			"/>
		<path class="st1" d="M129.8,85.1c0,0-0.8,1.1-2.9,1.1c-2.5,0-3.7-0.9-3.7-0.9v-2.6h0.3c0.3,0.8,1,3.2,3.4,3.2
			c1.5,0,1.7-1.8,0.1-2.9l-2.1-1.2c-2-1.2-2.5-2.9-1.4-4.3c0,0,0.8-1,2.8-1c2.4,0,3.4,0.6,3.4,0.6v2.3h-0.3c-0.3-0.7-0.9-2.6-3-2.6
			c-1.3,0-1.9,1.6-0.1,2.7l2.1,1.3C130.2,81.8,130.8,83.6,129.8,85.1z"/>
		<path class="st1" d="M137.6,84l0.3,0.2c-0.4,1-1.7,2-3,2c-1.6,0-2.6-0.7-2.6-3.1v-6.2h-1l-0.1-0.3h1.1v-2.7l2.6-0.4v3.2h2.4
			l-0.1,0.3h-2.4V83c0,1.1,0.5,1.7,1.5,1.7C136.9,84.7,137.4,84.3,137.6,84z"/>
		<path class="st1" d="M148.4,85.7V86h-4.2v-0.3c0.8-0.2,0.8-1.1,0.8-2.2v-3.9c0-1.2-0.5-1.7-1.7-1.7c-0.6,0-1.3,0.4-1.7,1.2v4.4
			c0,1.1,0.1,2,0.8,2.1V86h-4.2v-0.4c0.8-0.2,0.8-1.1,0.8-2.1V73.2c0-0.7-0.2-0.9-1-1.2v-0.3l3.6-0.9v7.8c0.4-1.1,2.1-2.2,3.4-2.2
			c1.6,0,2.6,0.7,2.6,3.2v3.9C147.5,84.6,147.7,85.5,148.4,85.7z"/>
		<path class="st1" d="M158.2,81.1h-6.5c0.2,2,1.2,3,2.6,3.4c1.1,0.2,2.7-0.2,3.3-1.1l0.3,0.2c-0.3,1.1-1.5,2.7-4.3,2.7
			c-2.7,0-4.5-2.5-4.5-4.9c0-2.9,2-5,4.8-5C156.8,76.4,158.2,77.9,158.2,81.1z M155.7,80.7c0-2.6-0.8-4-2-4c-1.2,0-2,2.1-2,4H155.7z
			"/>
		<path class="st1" d="M165.3,84l0.3,0.2c-0.4,1-1.7,2-3,2c-1.6,0-2.6-0.7-2.6-3.1v-6.2h-1l-0.1-0.3h1.1v-2.7l2.6-0.4v3.2h2.4
			l-0.1,0.3h-2.4V83c0,1.1,0.5,1.7,1.5,1.7C164.7,84.7,165.1,84.3,165.3,84z"/>
		<path class="st1" d="M170.4,85.7V86h-4.2v-0.3c0.8-0.2,0.8-1.1,0.8-2.1V79c0-0.7-0.2-1-1-1.4v-0.3l3.6-0.8v7.1
			C169.6,84.7,169.7,85.5,170.4,85.7z M168.1,74.7c-0.8,0-1.4-0.6-1.4-1.4s0.6-1.4,1.4-1.4c0.8,0,1.4,0.6,1.4,1.4
			S168.9,74.7,168.1,74.7z"/>
		<path class="st1" d="M180.3,83.5c-0.3,1-1.5,2.6-4.1,2.6c-2.7,0-4.5-2.6-4.5-5c0-2.4,1.8-4.9,5.3-4.9c1.5,0,2.3,0.6,2.7,0.9
			c0.3,0.3,0.6,0.9,0.4,1.4c-0.2,0.7-0.9,1.2-1.7,1c-0.7-0.2-1.2-0.9-1-1.7c0.1-0.4,0.3-0.7,0.6-0.8c0.2-0.1-0.3-0.4-1.1-0.4
			c-0.7,0-2.7,0.6-2.7,4.2c0,2.2,1.2,3.2,2.6,3.5c1,0.2,2.6-0.3,3.1-1L180.3,83.5z"/>
		<path class="st1" d="M117.6,107.2v0.3h-6.2v-0.3c0.9,0,1.5-0.7,1.5-2.1v-11l-5.4,13.6h-0.3l-5.7-12.3v6.9c0,0,0,4.8,2.8,4.8v0.3
			H98v-0.3c3.1,0,3.1-4.8,3.1-4.8v-7.5c-0.8-1.4-1.8-1.4-2.3-1.4v-0.3h5.2l4.9,10.4l4.1-10.4h4.5v0.3c-0.9,0-1.6,0.6-1.6,1.8v9.8
			C115.9,106.5,116.8,107.2,117.6,107.2z"/>
		<path class="st1" d="M127.5,102.6H121c0.2,2,1.2,3,2.6,3.4c1.1,0.2,2.7-0.2,3.3-1.1l0.3,0.2c-0.3,1.1-1.5,2.7-4.3,2.7
			c-2.7,0-4.5-2.5-4.5-4.9c0-2.9,2-5,4.8-5C126.1,97.9,127.5,99.4,127.5,102.6z M125,102.3c0-2.6-0.8-4-2-4c-1.2,0-2,2.1-2,4H125z"
			/>
		<path class="st1" d="M139.6,106.9v0.3l-3,0.4c-0.6,0.1-0.6-0.4-0.6-0.4v-1.3c-0.7,1.2-2.2,1.7-3.1,1.7c-2.3,0-4.4-1.8-4.4-5.1
			c0-3.3,2.2-4.8,5-4.8c0.9,0,1.8,0.2,2.5,0.6v-3.9c0-0.7-0.2-0.9-1-1.2V93l3.6-0.8v13.3C138.6,106.6,138.8,106.8,139.6,106.9z
			 M136.1,101.7c0-2.6-1.3-3.4-2.4-3.4c-1.5,0-2.1,1.1-2.1,4.2c0,3.3,0.7,4.5,2.3,4.5c1.4,0,2.2-1,2.2-2.5V101.7z"/>
		<path class="st1" d="M144.5,107.2v0.3h-4.2v-0.3c0.8-0.2,0.8-1.1,0.8-2.1v-4.5c0-0.7-0.2-1-1-1.4v-0.3l3.6-0.8v7.1
			C143.7,106.2,143.8,107,144.5,107.2z M142.2,96.3c-0.8,0-1.4-0.6-1.4-1.4s0.6-1.4,1.4-1.4c0.8,0,1.4,0.6,1.4,1.4
			S143,96.3,142.2,96.3z"/>
		<path class="st1" d="M154.4,105.1c-0.3,1-1.5,2.6-4.1,2.6c-2.7,0-4.5-2.6-4.5-5c0-2.4,1.8-4.9,5.3-4.9c1.5,0,2.3,0.6,2.7,0.9
			c0.3,0.3,0.6,0.9,0.4,1.4c-0.2,0.7-0.9,1.2-1.7,1c-0.7-0.2-1.2-0.9-1-1.7c0.1-0.4,0.3-0.7,0.6-0.8c0.2-0.1-0.3-0.4-1.1-0.4
			c-0.7,0-2.7,0.6-2.7,4.2c0,2.2,1.2,3.2,2.6,3.5c1,0.2,2.6-0.3,3.1-1L154.4,105.1z"/>
		<path class="st1" d="M159.7,107.2v0.3h-4.2v-0.3c0.8-0.2,0.8-1.1,0.8-2.1v-4.5c0-0.7-0.2-1-1-1.4v-0.3l3.6-0.8v7.1
			C158.9,106.2,159,107,159.7,107.2z M157.4,96.3c-0.8,0-1.4-0.6-1.4-1.4s0.6-1.4,1.4-1.4c0.8,0,1.4,0.6,1.4,1.4
			S158.2,96.3,157.4,96.3z"/>
		<path class="st1" d="M170.6,107.2v0.3h-4.2v-0.3c0.8-0.2,0.8-1.1,0.8-2.1v-4c0-1-0.6-1.7-1.7-1.7c-0.8,0-1.7,0.9-1.7,1.7v4
			c0,1.1,0.1,1.9,0.8,2.1v0.3h-4.2v-0.3c0.8-0.2,0.8-1.1,0.8-2.1v-4.6c0-0.7-0.2-0.9-1-1.4v-0.3l3.6-0.8v2.2
			c0.5-1.2,2.1-2.2,3.4-2.2c1.6,0,2.6,0.6,2.6,3.1v4C169.8,106.2,169.9,107,170.6,107.2z"/>
		<path class="st1" d="M180.6,102.6h-6.5c0.2,2,1.2,3,2.6,3.4c1.1,0.2,2.7-0.2,3.3-1.1l0.3,0.2c-0.3,1.1-1.5,2.7-4.3,2.7
			c-2.7,0-4.5-2.5-4.5-4.9c0-2.9,2-5,4.8-5C179.2,97.9,180.6,99.4,180.6,102.6z M178.1,102.3c0-2.6-0.8-4-2-4c-1.2,0-2,2.1-2,4
			H178.1z"/>
		<path class="st1" d="M110.7,124.8l0.3,3.2c-1.5,1-3.1,1.3-5.3,1.3c-4.4,0-7.1-3.3-7.1-7.4c0-4.1,2.7-7.4,7.1-7.4
			c2.1,0,4,0.2,5.3,1.2l-0.3,3.2h-0.3c-1.1-2.8-2.3-4.1-4.7-4.1c-2.3,0-3.4,1.4-3.4,7c0,5.6,1.2,7,3.4,7c2.5,0,4.1-1.9,4.7-4.1
			H110.7z"/>
		<path class="st1" d="M121.3,124.2h-6.5c0.2,2,1.2,3,2.6,3.4c1.1,0.2,2.7-0.2,3.3-1.1l0.3,0.2c-0.3,1.1-1.5,2.7-4.3,2.7
			c-2.7,0-4.5-2.5-4.5-4.9c0-2.9,2-5,4.8-5C119.9,119.4,121.3,121,121.3,124.2z M118.8,123.8c0-2.6-0.8-4-2-4c-1.2,0-2,2.1-2,4
			H118.8z"/>
		<path class="st1" d="M132.3,128.7v0.3h-4.2v-0.3c0.8-0.2,0.8-1.1,0.8-2.1v-4c0-1-0.6-1.7-1.7-1.7c-0.8,0-1.7,0.9-1.7,1.7v4
			c0,1.1,0.1,1.9,0.8,2.1v0.3h-4.2v-0.3c0.8-0.2,0.8-1.1,0.8-2.1V122c0-0.7-0.2-0.9-1-1.4v-0.3l3.6-0.8v2.2c0.5-1.2,2.1-2.2,3.4-2.2
			c1.6,0,2.6,0.6,2.6,3.1v4C131.5,127.7,131.6,128.5,132.3,128.7z"/>
		<path class="st1" d="M139.1,127.1l0.3,0.2c-0.4,1-1.7,2-3,2c-1.6,0-2.6-0.7-2.6-3.1V120h-1l-0.1-0.3h1.1v-2.7l2.6-0.4v3.2h2.4
			l-0.1,0.3h-2.4v6.1c0,1.1,0.5,1.7,1.5,1.7C138.5,127.8,138.9,127.4,139.1,127.1z"/>
		<path class="st1" d="M149.1,124.2h-6.5c0.2,2,1.2,3,2.6,3.4c1.1,0.2,2.7-0.2,3.3-1.1l0.3,0.2c-0.3,1.1-1.5,2.7-4.3,2.7
			c-2.7,0-4.5-2.5-4.5-4.9c0-2.9,2-5,4.8-5C147.7,119.4,149.1,121,149.1,124.2z M146.6,123.8c0-2.6-0.8-4-2-4c-1.2,0-2,2.1-2,4
			H146.6z"/>
		<path class="st1" d="M157.5,119.8c0.6,0.6,0.7,1.5,0.1,2.1c-0.6,0.6-1.5,0.7-2.1,0.2c-0.3-0.3-0.5-0.6-0.5-1c0-0.2-0.8,0-1.6,1.2
			v4.3c0,1.1,0.1,1.9,0.8,2.1v0.3H150v-0.3c0.8-0.2,0.8-1.1,0.8-2.1V122c0-0.7-0.2-1-1-1.4v-0.3l3.6-0.8v2.3c1.1-1.7,1.9-2,2.4-2.2
			C156.2,119.4,157,119.4,157.5,119.8z"/>
	</g>
</g>
</svg>
